<?xml version="1.0" encoding="UTF-8"?>
<svg id="Layer_1" data-name="Layer 1" xmlns="http://www.w3.org/2000/svg" xmlns:xlink="http://www.w3.org/1999/xlink" viewBox="0 0 846.26 666.95">
  <defs>
    <style>
      .cls-1 {
        fill: url(#linear-gradient-2);
      }

      .cls-2 {
        fill: url(#linear-gradient-3);
      }

      .cls-3 {
        fill: #143745;
      }

      .cls-4 {
        fill: #064c4f;
      }

      .cls-5 {
        fill: #9dcd0b;
      }

      .cls-6 {
        fill: url(#linear-gradient);
      }
    </style>
    <linearGradient id="linear-gradient" x1="72.17" y1="339.25" x2="286.37" y2="339.25" gradientUnits="userSpaceOnUse">
      <stop offset=".03" stop-color="#9dcd0b"/>
      <stop offset=".12" stop-color="#7daa18"/>
      <stop offset=".24" stop-color="#5d8725"/>
      <stop offset=".36" stop-color="#426a31"/>
      <stop offset=".49" stop-color="#2e5339"/>
      <stop offset=".63" stop-color="#1f4340"/>
      <stop offset=".79" stop-color="#163943"/>
      <stop offset="1" stop-color="#143745"/>
    </linearGradient>
    <linearGradient id="linear-gradient-2" x1="819.81" y1="74.39" x2="750.57" y2="103.5" gradientUnits="userSpaceOnUse">
      <stop offset="0" stop-color="#064c4f"/>
      <stop offset=".22" stop-color="#084e4d"/>
      <stop offset=".38" stop-color="#125649"/>
      <stop offset=".52" stop-color="#226442"/>
      <stop offset=".66" stop-color="#397737"/>
      <stop offset=".78" stop-color="#56902a"/>
      <stop offset=".9" stop-color="#79af1a"/>
      <stop offset="1" stop-color="#9dcd0b"/>
    </linearGradient>
    <linearGradient id="linear-gradient-3" x1="773.86" y1="99.23" x2="809.84" y2="67.5" gradientUnits="userSpaceOnUse">
      <stop offset=".03" stop-color="#9dcd0b"/>
      <stop offset=".12" stop-color="#79af1a"/>
      <stop offset=".24" stop-color="#56902a"/>
      <stop offset=".36" stop-color="#397737"/>
      <stop offset=".49" stop-color="#226442"/>
      <stop offset=".63" stop-color="#125649"/>
      <stop offset=".79" stop-color="#084e4d"/>
      <stop offset="1" stop-color="#064c4f"/>
    </linearGradient>
  </defs>
  <g>
    <path class="cls-3" d="M122.05,652.39c0-2.45.39-5.21,1.14-8.17h3.36c-.59,2.71-.98,5.12-.98,6.91,0,4.46,2.02,6.89,5.88,6.89,4.6,0,6.26-3.48,6.26-8.36,0-3.43-.86-7.34-2.11-11.69h3.93c1.22,4.12,1.86,8.13,1.86,11.69,0,8.04-3.15,13.84-10.16,13.84-5.83,0-9.19-4.44-9.19-11.11ZM127.95,634.15l2.04-3.22,3.31,2.99-2.04,3.24-3.31-3.01Z"/>
    <path class="cls-3" d="M145.57,655.46v-4.86c1.27.04,2.43.02,3.49-.08,7.67-.81,9.44-5.74,9.44-16.11v-11.84h3.9v21.59c0,3.9.77,4.54,2.43,4.54h.25v5.44h-.64c-2.59,0-4.06-1.32-4.69-4.86-.64,1.39-1.5,2.62-2.43,3.54-2.06,2.05-4.81,3.03-8.44,3.03-1.02,0-2.13-.13-3.31-.38ZM145.66,627.34h4.33c1.34,4.29,3.59,13.46,3.56,18.58-.73.58-2.34,1.13-3.24,1.26-.63-6.21-2.34-12.93-4.65-19.84Z"/>
    <path class="cls-3" d="M162.89,651.47c0-1.86.52-2.77,2.2-2.77h8.19v5.44h-8.19c-1.59,0-2.2-.75-2.2-2.67Z"/>
    <path class="cls-3" d="M171.08,651.47c0-1.86.52-2.77,2.2-2.77h8.19v5.44h-8.19c-1.59,0-2.2-.75-2.2-2.67Z"/>
    <path class="cls-3" d="M179.27,651.47c0-1.86.52-2.77,2.2-2.77h8.19v5.44h-8.19c-1.59,0-2.2-.75-2.2-2.67Z"/>
    <path class="cls-3" d="M187.47,651.47c0-1.86.52-2.77,2.2-2.77h8.19v5.44h-8.19c-1.59,0-2.2-.75-2.2-2.67Z"/>
    <path class="cls-3" d="M195.66,651.47c0-1.86.52-2.77,2.2-2.77h3.43c-1.02-1.64-1.38-3.69-1.38-5.21,0-5.31,3.27-8.64,7.51-8.64,1.65,0,3.38.45,5.03,1.3l-.73,4.52c-1.52-.66-2.79-.98-4.1-.98-2.25,0-4.1,1.28-4.1,3.8s1.81,4.07,3.29,4.5c.46.13.98.19,1.48.17,1.5-.11,3.33-.73,6.89-2.33v5.06c-6.47,3.05-10.87,3.24-16.24,3.24h-1.09c-1.59,0-2.2-.75-2.2-2.67Z"/>
    <path class="cls-3" d="M219.36,650.59c1.27.04,2.43.02,3.49-.08,7.67-.81,9.44-5.74,9.44-16.11v-11.84h3.9v7.42c0,8.79-.7,15.19-2.66,19.28-2.13,4.52-5.54,6.57-10.86,6.57-1.02,0-2.13-.13-3.31-.38v-4.86ZM219.45,627.34h4.33c1.34,4.29,3.59,13.46,3.56,18.58-.73.58-2.34,1.13-3.24,1.26-.63-6.21-2.34-12.93-4.65-19.84Z"/>
    <path class="cls-3" d="M240.96,622.56h3.9v31.57h-3.9v-31.57Z"/>
    <path class="cls-3" d="M249.45,663.65v-4.52c.97.15,1.84.21,2.63.21,5.13,0,6.97-2.69,7.4-6.17l-.07-.08c-1.13.62-2.25.83-3.36.83-3.83,0-6.74-2.16-6.74-7.57,0-4.69,2.52-10.07,6.72-10.07,4.86,0,6.9,5.25,6.9,11.73v.73c-.02,8.49-2.56,15.66-8.91,15.66-1.38,0-2.9-.28-4.58-.75ZM259.38,647.78c.25-.38.23-.83.2-1.34-.16-2.47-1.36-4.86-3.51-4.86-2.58,0-3.68,2.58-3.67,4.61,0,1.79,1.45,2.67,3.77,2.67,1.11,0,2.65-.21,3.2-1.07Z"/>
    <path class="cls-3" d="M285.41,649.42c-.89.81-2.09,1.34-3.68,1.34-3.51,0-6.17-2.37-6.17-6.89s3.38-9.98,9.44-10.77v-2.05h3.74v14.16c0,2.82.77,3.48,2.68,3.48h.61v5.44h-.89c-3.09,0-5.04-1.58-5.72-4.71ZM284.67,644.45c.3-.45.38-.96.38-1.51.04-1.15.04-2.86.04-5.16-4.45.45-6.33,3.48-6.33,5.63,0,1.64,1.68,2.28,3.27,2.28,1.25,0,2.24-.45,2.65-1.24ZM281.38,624.25l1.9-3.01,2.99,2.71,1.7-2.71,3.09,2.79-1.9,3.01-3-2.71-1.7,2.71-3.08-2.79Z"/>
    <path class="cls-3" d="M289.83,651.47c0-1.86.52-2.77,2.2-2.77h8.19v5.44h-8.19c-1.59,0-2.2-.75-2.2-2.67Z"/>
    <path class="cls-3" d="M298.02,651.47c0-1.86.52-2.77,2.2-2.77h8.19v5.44h-8.19c-1.59,0-2.2-.75-2.2-2.67Z"/>
    <path class="cls-3" d="M306.22,651.47c0-1.86.52-2.77,2.2-2.77h8.19v5.44h-8.19c-1.59,0-2.2-.75-2.2-2.67Z"/>
    <path class="cls-3" d="M314.41,651.47c0-1.86.52-2.77,2.2-2.77h8.19v5.44h-8.19c-1.59,0-2.2-.75-2.2-2.67Z"/>
    <path class="cls-3" d="M322.6,651.47c0-1.86.52-2.77,2.2-2.77h8.19v5.44h-8.19c-1.59,0-2.2-.75-2.2-2.67Z"/>
    <path class="cls-3" d="M330.8,651.47c0-1.86.52-2.77,2.2-2.77h8.19v5.44h-8.19c-1.59,0-2.2-.75-2.2-2.67Z"/>
    <path class="cls-3" d="M338.99,651.47c0-1.86.52-2.77,2.2-2.77h8.19v5.44h-8.19c-1.59,0-2.2-.75-2.2-2.67Z"/>
    <path class="cls-3" d="M347.18,651.47c0-1.86.52-2.77,2.2-2.77h1.79c2.13,0,3.17-.58,3.47-2.3.07-.38.11-.83.11-1.34,0-2.37-.52-5.23-1.45-9.02h4.02c.73,3.26,1.16,6.36,1.16,8.85,0,.66-.04,1.28-.09,1.88-.5,4.95-3.02,7.38-7.56,7.38h-1.45c-1.59,0-2.2-.75-2.2-2.67ZM348.06,661.41l1.9-3.01,3,2.71,1.7-2.71,3.08,2.79-1.9,3.01-2.99-2.71-1.7,2.71-3.09-2.79Z"/>
    <path class="cls-3" d="M362.92,646.39v-23.83h3.9v22.76c0,2.79.61,3.37,2.7,3.37h.25v5.44h-.54c-4.27,0-6.31-2.41-6.31-7.74Z"/>
    <path class="cls-3" d="M367.58,651.47c0-1.86.52-2.77,2.2-2.77h3.43c-1.02-1.64-1.38-3.69-1.38-5.21,0-5.31,3.27-8.64,7.51-8.64,1.65,0,3.38.45,5.03,1.3l-.73,4.52c-1.52-.66-2.79-.98-4.09-.98-2.25,0-4.1,1.28-4.1,3.8s1.81,4.07,3.29,4.5c.46.13.98.19,1.48.17,1.5-.11,3.33-.73,6.88-2.33v5.06c-6.47,3.05-10.87,3.24-16.24,3.24h-1.09c-1.59,0-2.2-.75-2.2-2.67Z"/>
    <path class="cls-3" d="M391.23,646.65v-1.62h3.56v1.15c0,2.07.59,2.65,2.97,2.65h1.07c2.43,0,3.47-.81,3.47-2.54,0-.45-.07-1-.21-1.6l-2.7-10.62,3.77-1.28,2.83,11.84c.71,3.05,1.43,4.07,2.95,4.07h.34v5.44h-.43c-1.93,0-3.4-1-4.29-2.77-1.09,1.92-3.17,2.9-5.58,2.9h-1.13c-4.49,0-6.62-1.81-6.62-7.62Z"/>
    <path class="cls-3" d="M407.08,651.47c0-1.86.52-2.77,2.2-2.77h1.79c1.65,0,2.27-.62,2.27-3.05v-23.08h3.92v23.21c0,2.2.45,2.92,2.18,2.92h.41v5.44h-.79c-1.47,0-2.75-.17-3.95-1.58-1.11,1.39-2.95,1.58-4.69,1.58h-1.14c-1.59,0-2.2-.75-2.2-2.67Z"/>
    <path class="cls-3" d="M417.65,651.47c0-1.86.52-2.77,2.2-2.77h.66c2.63,0,3.33-1.09,3.33-5.06v-21.08h3.9v18.81c0,8.62-1.11,12.76-7.26,12.76h-.63c-1.59,0-2.2-.75-2.2-2.67Z"/>
    <path class="cls-3" d="M440.67,652.75c0-3.65,1.14-5.8,3.61-6.21.11-1.28.43-2.58.72-3.58.95-3.41,2.81-6.68,6.15-6.68,4.26,0,7.03,4.86,7.03,10.5,0,4.12-1.54,7.49-5.2,7.49-2.22,0-4.63-1.07-6.63-2.92-1.36-.26-1.82.45-1.82,1.75,0,3.2.34,7.59.8,13.87h-3.92c-.34-5.21-.73-10.86-.73-14.21ZM455.1,646.37c0-2.77-1.9-4.97-4.02-4.97-1.31,0-2.34,1.3-2.86,2.58-.45,1.09-.43,2.05.3,2.94.97,1.28,2.95,2,4.47,2s2.11-1.17,2.11-2.56Z"/>
    <path class="cls-3" d="M462.62,646.39v-23.83h3.9v22.76c0,2.79.61,3.37,2.7,3.37h.25v5.44h-.54c-4.27,0-6.31-2.41-6.31-7.74Z"/>
    <path class="cls-3" d="M467.27,651.47c0-1.86.52-2.77,2.2-2.77h8.19v5.44h-8.19c-1.59,0-2.2-.75-2.2-2.67Z"/>
    <path class="cls-3" d="M475.47,651.47c0-1.86.52-2.77,2.2-2.77h8.19v5.44h-8.19c-1.59,0-2.2-.75-2.2-2.67Z"/>
    <path class="cls-3" d="M483.66,651.47c0-1.86.52-2.77,2.2-2.77h8.19v5.44h-8.19c-1.59,0-2.2-.75-2.2-2.67Z"/>
    <path class="cls-3" d="M491.85,651.47c0-1.86.52-2.77,2.2-2.77h8.19v5.44h-8.19c-1.59,0-2.2-.75-2.2-2.67Z"/>
    <path class="cls-3" d="M500.05,651.47c0-1.86.52-2.77,2.2-2.77h8.19v5.44h-8.19c-1.59,0-2.2-.75-2.2-2.67Z"/>
    <path class="cls-3" d="M508.24,651.47c0-1.86.52-2.77,2.2-2.77h8.19v5.44h-8.19c-1.59,0-2.2-.75-2.2-2.67Z"/>
    <path class="cls-3" d="M516.43,651.47c0-1.86.52-2.77,2.2-2.77h8.19v5.44h-8.19c-1.59,0-2.2-.75-2.2-2.67Z"/>
    <path class="cls-3" d="M524.63,651.47c0-1.86.52-2.77,2.2-2.77h8.19v5.44h-8.19c-1.59,0-2.2-.75-2.2-2.67Z"/>
    <path class="cls-3" d="M532.82,651.47c0-1.86.52-2.77,2.2-2.77h8.19v5.44h-8.19c-1.59,0-2.2-.75-2.2-2.67Z"/>
    <path class="cls-3" d="M541.01,651.47c0-1.86.52-2.77,2.2-2.77h6.69c3.61,0,5.33-.53,5.33-3.86-.95.88-2.33,1.17-3.84,1.17-3.63,0-6.15-2.28-6.15-6.91,0-4.99,2.61-9.56,6.69-9.56s6.63,4.35,6.63,12.16v.85c0,8.45-2.79,11.58-8.87,11.58h-6.47c-1.59,0-2.2-.75-2.2-2.67ZM546.16,622.73l1.9-3.01,2.99,2.71,1.7-2.71,3.08,2.77-1.9,3.03-2.99-2.71-1.7,2.71-3.08-2.79ZM554.94,640.06c.27-.3.32-.64.29-1.17-.18-2.35-1.68-4.31-3.49-4.31-1.95,0-3.45,1.86-3.43,4.29,0,1.45,1.09,2.26,3.59,2.26,1.14,0,2.52-.38,3.04-1.07Z"/>
    <path class="cls-3" d="M558.85,659.17c.68.02,1.31,0,1.86-.06,5.81-.21,6.55-5.14,6.55-8.55,0-3.09-.61-6.85-1.77-12.59h3.92c.89,4.29,1.48,8.73,1.48,12.37,0,7.89-2.81,13.78-8.89,13.78-1,0-2.06-.15-3.15-.43v-4.52Z"/>
    <path class="cls-3" d="M573.02,620.73l1.63-.13c-.21-.64-.34-1.28-.34-1.92,0-2.28,1.36-4.33,3.88-4.33.45,0,.91.06,1.39.19v2.73c-.36-.08-.72-.13-1.04-.13-1.23,0-1.95.55-1.95,1.56,0,.51.2.92.57,1.15.29.26.73.41,1.36.34l2.34-.21v2.75l-7.85.75v-2.75ZM575.06,650.59c1.27.04,2.43.02,3.49-.08,7.67-.81,9.44-5.74,9.44-16.11v-11.84h3.9v7.42c0,8.79-.7,15.19-2.67,19.28-2.13,4.52-5.54,6.57-10.85,6.57-1.02,0-2.13-.13-3.31-.38v-4.86ZM575.14,627.34h4.33c1.34,4.29,3.59,13.46,3.56,18.58-.73.58-2.34,1.13-3.24,1.26-.63-6.21-2.34-12.93-4.65-19.84Z"/>
    <path class="cls-3" d="M596.65,622.56h3.9v31.57h-3.9v-31.57Z"/>
    <path class="cls-3" d="M623.35,649.42c-.89.81-2.09,1.34-3.68,1.34-3.5,0-6.17-2.37-6.17-6.89s3.38-9.98,9.44-10.77v-2.05h3.74v14.16c0,2.82.77,3.48,2.68,3.48h.61v5.44h-.89c-3.09,0-5.04-1.58-5.72-4.71ZM622.62,644.45c.3-.45.38-.96.38-1.51.04-1.15.04-2.86.04-5.16-4.45.45-6.33,3.48-6.33,5.63,0,1.64,1.68,2.28,3.27,2.28,1.25,0,2.24-.45,2.65-1.24ZM619.33,624.25l1.9-3.01,2.99,2.71,1.7-2.71,3.09,2.79-1.9,3.01-3-2.71-1.7,2.71-3.08-2.79Z"/>
    <path class="cls-3" d="M627.78,651.47c0-1.86.52-2.77,2.2-2.77h8.19v5.44h-8.19c-1.59,0-2.2-.75-2.2-2.67Z"/>
    <path class="cls-3" d="M635.97,651.47c0-1.86.52-2.77,2.2-2.77h8.19v5.44h-8.19c-1.59,0-2.2-.75-2.2-2.67Z"/>
    <path class="cls-3" d="M644.16,651.47c0-1.86.52-2.77,2.2-2.77h8.19v5.44h-8.19c-1.59,0-2.2-.75-2.2-2.67Z"/>
    <path class="cls-3" d="M652.36,651.47c0-1.86.52-2.77,2.2-2.77h1.16c.8,0,1.75-.04,2.68-.13-1-1.43-1.7-3.35-1.7-5.67,0-4.99,2.92-9.3,6.47-9.3s6.49,4.29,6.49,9.58c0,2.26-.55,4.07-1.47,5.4.95.11,1.77.13,2.49.13h1.11v5.44h-1.16c-2.67,0-5.08-.6-7.24-1.77-2.15,1.24-4.36,1.77-7.53,1.77h-1.31c-1.59,0-2.2-.75-2.2-2.67ZM657.31,626.79l1.9-3.01,2.99,2.71,1.7-2.71,3.09,2.79-1.9,3.01-2.99-2.71-1.72,2.71-3.08-2.79ZM666.68,642.89c0-1.96-1.54-4.39-3.5-4.39-1.79,0-3.47,2-3.47,4.31,0,2.75,2.45,4.16,3.65,4.16,1.13,0,3.33-1.39,3.33-4.08Z"/>
    <path class="cls-3" d="M669.6,651.47c0-1.86.52-2.77,2.2-2.77h1.07c1.65,0,2.61-.19,3.2-.77.63-.62.79-1.71.79-3.46v-6.51h3.59v6.25c0,1.62.09,2.75.48,3.46.39.73,1.09,1.02,2.27,1.02h.32v5.44h-.59c-1.61,0-3.42-.6-4.42-2.07-1.11,1.66-3.18,2.07-5.69,2.07h-1.04c-1.59,0-2.2-.75-2.2-2.67ZM670.93,661.41l1.9-3.01,2.99,2.71,1.7-2.71,3.08,2.79-1.9,3.01-2.99-2.71-1.7,2.71-3.08-2.79Z"/>
    <path class="cls-3" d="M681.34,651.47c0-1.86.52-2.77,2.2-2.77h1.16c.8,0,1.75-.04,2.68-.13-1-1.43-1.7-3.35-1.7-5.67,0-4.99,2.92-9.3,6.47-9.3s6.49,4.29,6.49,9.58c0,2.26-.55,4.07-1.47,5.4.95.11,1.77.13,2.49.13h1.11v5.44h-1.16c-2.67,0-5.08-.6-7.24-1.77-2.15,1.24-4.36,1.77-7.53,1.77h-1.31c-1.59,0-2.2-.75-2.2-2.67ZM686.29,626.79l1.9-3.01,2.99,2.71,1.7-2.71,3.09,2.79-1.9,3.01-2.99-2.71-1.72,2.71-3.08-2.79ZM695.66,642.89c0-1.96-1.54-4.39-3.5-4.39-1.79,0-3.47,2-3.47,4.31,0,2.75,2.45,4.16,3.65,4.16,1.13,0,3.33-1.39,3.33-4.08Z"/>
    <path class="cls-3" d="M698.58,651.47c0-1.86.52-2.77,2.2-2.77h3.68c5.22,0,7.89-.9,11.18-4.14l.75-.75c.36-.36.93-.94,1.52-1.56-1.09-.21-2.29-.47-3.47-.7-1.7-.36-3.33-.68-4.51-.83-.43-.04-.79-.08-1.11-.08-2.06,0-2.79,1.19-2.84,3.56h-3.4c0-5.21,1.88-8.38,5.97-8.38.41,0,.82.02,1.31.09,1.98.19,4.42.83,6.81,1.45,2.83.73,5.62,1.43,7.51,1.43v4.93c-.5.02-.95.11-1.38.24-1.04.28-1.75.85-2.79,1.88l-1.82,1.92c-4.56,4.8-7.62,6.4-14.27,6.4h-3.15c-1.59,0-2.2-.75-2.2-2.67Z"/>
  </g>
  <g>
    <path class="cls-3" d="M17.67,589.15v-41.16h17.99c4.47,0,8.39.86,11.76,2.59,3.37,1.73,6,4.12,7.88,7.17s2.82,6.67,2.82,10.82-.94,7.71-2.82,10.79c-1.88,3.08-4.51,5.48-7.88,7.2-3.37,1.73-7.29,2.59-11.76,2.59h-17.99ZM25.32,582.68h10c3.1,0,5.77-.59,8.03-1.76,2.25-1.18,4-2.82,5.23-4.94,1.23-2.12,1.85-4.59,1.85-7.41s-.62-5.34-1.85-7.44c-1.23-2.1-2.98-3.73-5.23-4.91-2.25-1.18-4.93-1.76-8.03-1.76h-10v28.22Z"/>
    <path class="cls-3" d="M68.18,552.58c-1.37,0-2.5-.43-3.38-1.29-.88-.86-1.32-1.9-1.32-3.12s.44-2.3,1.32-3.15c.88-.84,2.01-1.26,3.38-1.26s2.5.4,3.38,1.21c.88.8,1.32,1.81,1.32,3.03,0,1.29-.43,2.38-1.29,3.26-.86.88-2,1.32-3.41,1.32ZM64.48,589.15v-31.4h7.35v31.4h-7.35Z"/>
    <path class="cls-3" d="M93.7,587.74c-2.98,0-5.67-.64-8.08-1.91-2.41-1.27-4.31-3.05-5.7-5.32-1.39-2.27-2.09-4.94-2.09-8s.7-5.66,2.09-7.94c1.39-2.27,3.29-4.04,5.7-5.29,2.41-1.25,5.11-1.88,8.08-1.88,2.67,0,5.06.53,7.17,1.59,2.12,1.06,3.81,2.7,5.09,4.94,1.27,2.23,1.91,5.1,1.91,8.58s-.64,6.36-1.91,8.61c-1.27,2.25-2.97,3.92-5.09,5-2.12,1.08-4.51,1.62-7.17,1.62ZM94.64,600.97c-2.9,0-5.73-.38-8.5-1.15s-5.03-1.87-6.79-3.32l3.29-5.53c1.37,1.14,3.11,2.05,5.2,2.73,2.1.69,4.22,1.03,6.38,1.03,3.45,0,5.98-.79,7.58-2.38,1.61-1.59,2.41-3.97,2.41-7.14v-5.59l.59-7.11-.24-7.11v-7.64h7v26.64c0,5.68-1.45,9.87-4.35,12.55-2.9,2.68-7.1,4.03-12.58,4.03ZM94.82,581.51c1.84,0,3.49-.38,4.94-1.15,1.45-.76,2.58-1.82,3.38-3.18.8-1.35,1.21-2.91,1.21-4.67s-.4-3.32-1.21-4.67c-.8-1.35-1.93-2.39-3.38-3.12-1.45-.72-3.1-1.09-4.94-1.09s-3.5.36-4.97,1.09c-1.47.73-2.61,1.76-3.41,3.12-.8,1.35-1.21,2.91-1.21,4.67s.4,3.32,1.21,4.67c.8,1.35,1.94,2.41,3.41,3.18,1.47.76,3.13,1.15,4.97,1.15Z"/>
    <path class="cls-3" d="M123.86,552.58c-1.37,0-2.5-.43-3.38-1.29-.88-.86-1.32-1.9-1.32-3.12s.44-2.3,1.32-3.15c.88-.84,2.01-1.26,3.38-1.26s2.5.4,3.38,1.21c.88.8,1.32,1.81,1.32,3.03,0,1.29-.43,2.38-1.29,3.26-.86.88-2,1.32-3.41,1.32ZM120.16,589.15v-31.4h7.35v31.4h-7.35Z"/>
    <path class="cls-3" d="M131.92,563.87v-5.88h20.93v5.88h-20.93ZM147.91,589.56c-3.45,0-6.11-.89-8-2.67-1.88-1.78-2.82-4.42-2.82-7.91v-28.16h7.35v27.99c0,1.49.38,2.65,1.15,3.47.76.82,1.83,1.23,3.2,1.23,1.65,0,3.02-.43,4.12-1.29l2.06,5.23c-.86.71-1.92,1.23-3.18,1.59-1.25.35-2.55.53-3.88.53Z"/>
    <path class="cls-3" d="M169.66,589.56c-2.63,0-5.14-.34-7.56-1.03-2.41-.69-4.32-1.52-5.73-2.5l2.82-5.59c1.41.9,3.1,1.65,5.06,2.23,1.96.59,3.92.88,5.88.88,2.31,0,3.99-.31,5.03-.94,1.04-.63,1.56-1.47,1.56-2.53,0-.86-.35-1.52-1.06-1.97-.71-.45-1.63-.79-2.76-1.03-1.14-.24-2.4-.45-3.79-.65-1.39-.2-2.78-.46-4.17-.79-1.39-.33-2.66-.82-3.79-1.47-1.14-.65-2.06-1.52-2.76-2.62-.71-1.1-1.06-2.55-1.06-4.35,0-2,.57-3.73,1.71-5.2,1.14-1.47,2.73-2.61,4.79-3.41,2.06-.8,4.5-1.21,7.32-1.21,2.12,0,4.25.24,6.41.71,2.16.47,3.94,1.14,5.35,2l-2.82,5.59c-1.49-.9-2.99-1.52-4.5-1.85-1.51-.33-3.01-.5-4.5-.5-2.23,0-3.89.33-4.97,1-1.08.67-1.62,1.51-1.62,2.53,0,.94.35,1.65,1.06,2.12.71.47,1.63.84,2.76,1.12,1.14.28,2.4.5,3.79.68,1.39.18,2.77.44,4.15.79,1.37.35,2.64.83,3.79,1.44,1.16.61,2.09,1.46,2.79,2.56s1.06,2.53,1.06,4.29c0,1.96-.58,3.67-1.73,5.12-1.16,1.45-2.79,2.58-4.91,3.38s-4.65,1.21-7.58,1.21Z"/>
    <path class="cls-3" d="M205.06,589.15v-41.16h16.93c3.65,0,6.77.59,9.38,1.76,2.61,1.18,4.62,2.86,6.03,5.06s2.12,4.8,2.12,7.82-.71,5.62-2.12,7.79c-1.41,2.18-3.42,3.84-6.03,5-2.61,1.16-5.73,1.73-9.38,1.73h-12.7l3.41-3.47v15.46h-7.64ZM212.7,574.51l-3.41-3.65h12.35c3.37,0,5.91-.72,7.61-2.18,1.71-1.45,2.56-3.47,2.56-6.06s-.85-4.65-2.56-6.06c-1.71-1.41-4.24-2.12-7.61-2.12h-12.35l3.41-3.76v23.81ZM231.99,589.15l-10.41-14.93h8.17l10.47,14.93h-8.23Z"/>
    <path class="cls-3" d="M261.03,589.56c-3.49,0-6.54-.7-9.14-2.09-2.61-1.39-4.63-3.3-6.06-5.73-1.43-2.43-2.15-5.19-2.15-8.29s.7-5.91,2.09-8.32c1.39-2.41,3.31-4.3,5.76-5.67,2.45-1.37,5.24-2.06,8.38-2.06s5.78.67,8.17,2c2.39,1.33,4.27,3.21,5.65,5.64,1.37,2.43,2.06,5.29,2.06,8.58,0,.31,0,.67-.03,1.06-.02.39-.05.76-.09,1.12h-26.17v-4.88h22.28l-2.88,1.53c.04-1.8-.33-3.39-1.12-4.76-.78-1.37-1.85-2.45-3.2-3.23-1.35-.78-2.91-1.18-4.67-1.18s-3.38.39-4.73,1.18c-1.35.79-2.41,1.87-3.18,3.26-.76,1.39-1.15,3.03-1.15,4.91v1.18c0,1.88.43,3.55,1.29,5,.86,1.45,2.08,2.57,3.65,3.35,1.57.79,3.37,1.18,5.41,1.18,1.76,0,3.35-.27,4.76-.82,1.41-.55,2.67-1.41,3.76-2.59l3.94,4.53c-1.41,1.65-3.19,2.91-5.32,3.79-2.14.88-4.58,1.32-7.32,1.32Z"/>
    <path class="cls-3" d="M290.37,589.56c-2.35,0-4.41-.4-6.17-1.21-1.76-.8-3.13-1.92-4.09-3.35-.96-1.43-1.44-3.05-1.44-4.85s.42-3.35,1.26-4.76c.84-1.41,2.22-2.53,4.15-3.35,1.92-.82,4.47-1.23,7.64-1.23h9.11v4.88h-8.58c-2.51,0-4.2.4-5.06,1.21-.86.8-1.29,1.79-1.29,2.97,0,1.33.53,2.39,1.59,3.17,1.06.79,2.53,1.18,4.41,1.18s3.42-.41,4.85-1.23c1.43-.82,2.46-2.04,3.09-3.65l1.23,4.41c-.71,1.84-1.97,3.27-3.79,4.29-1.82,1.02-4.12,1.53-6.91,1.53ZM300.25,589.15v-6.35l-.41-1.35v-11.11c0-2.16-.65-3.83-1.94-5.03-1.29-1.2-3.26-1.79-5.88-1.79-1.76,0-3.5.27-5.2.82-1.71.55-3.15,1.31-4.32,2.29l-2.88-5.35c1.69-1.29,3.69-2.26,6.03-2.91,2.33-.65,4.75-.97,7.26-.97,4.55,0,8.06,1.09,10.55,3.26,2.49,2.17,3.73,5.54,3.73,10.08v18.4h-6.94Z"/>
    <path class="cls-3" d="M315.54,589.15v-43.63h7.35v43.63h-7.35Z"/>
    <path class="cls-3" d="M335.18,552.58c-1.37,0-2.5-.43-3.38-1.29-.88-.86-1.32-1.9-1.32-3.12s.44-2.3,1.32-3.15c.88-.84,2.01-1.26,3.38-1.26s2.5.4,3.38,1.21c.88.8,1.32,1.81,1.32,3.03,0,1.29-.43,2.38-1.29,3.26s-2,1.32-3.41,1.32ZM331.47,589.15v-31.4h7.35v31.4h-7.35Z"/>
    <path class="cls-3" d="M343.23,563.87v-5.88h20.93v5.88h-20.93ZM359.22,589.56c-3.45,0-6.12-.89-8-2.67-1.88-1.78-2.82-4.42-2.82-7.91v-28.16h7.35v27.99c0,1.49.38,2.65,1.15,3.47.76.82,1.83,1.23,3.2,1.23,1.65,0,3.02-.43,4.12-1.29l2.06,5.23c-.86.71-1.92,1.23-3.17,1.59-1.25.35-2.55.53-3.88.53Z"/>
    <path class="cls-3" d="M373.28,600.97c-1.53,0-3.06-.25-4.59-.76s-2.8-1.21-3.82-2.12l2.94-5.41c.74.67,1.59,1.19,2.53,1.59.94.39,1.9.59,2.88.59,1.33,0,2.41-.33,3.23-1,.82-.67,1.59-1.78,2.29-3.35l1.82-4.12.59-.88,11.88-27.75h7.06l-14.7,33.93c-.98,2.35-2.07,4.21-3.26,5.59-1.2,1.37-2.53,2.33-4,2.88-1.47.55-3.09.82-4.85.82ZM379.75,590.27l-14.17-32.52h7.64l11.52,27.11-5,5.41Z"/>
    <path class="cls-3" d="M414.45,564.64v-3.1h17.09v3.1h-17.09ZM419.39,589.15v-31.08c0-2.45.72-4.44,2.16-5.94,1.44-1.51,3.51-2.26,6.21-2.26,1.05,0,2.07.14,3.05.42.98.28,1.81.72,2.47,1.32l-1.26,2.79c-.53-.46-1.14-.8-1.84-1.03-.7-.23-1.46-.34-2.26-.34-1.58,0-2.79.44-3.63,1.32-.84.88-1.26,2.17-1.26,3.89v4.21l.11,1.74v24.98h-3.74Z"/>
    <path class="cls-3" d="M446.43,589.41c-2.67,0-5.06-.6-7.18-1.81-2.12-1.21-3.8-2.88-5.02-5-1.23-2.12-1.84-4.55-1.84-7.28s.61-5.21,1.84-7.31c1.23-2.1,2.89-3.75,5-4.94,2.1-1.19,4.51-1.79,7.21-1.79s5.16.6,7.29,1.79c2.12,1.19,3.79,2.84,5,4.94,1.21,2.1,1.81,4.54,1.81,7.31s-.61,5.16-1.81,7.28c-1.21,2.12-2.88,3.79-5.02,5-2.14,1.21-4.56,1.81-7.26,1.81ZM446.43,586.1c2,0,3.77-.45,5.31-1.34,1.54-.89,2.76-2.16,3.66-3.79.89-1.63,1.34-3.52,1.34-5.65s-.45-4.07-1.34-5.68c-.89-1.61-2.11-2.87-3.66-3.76s-3.3-1.34-5.26-1.34-3.72.45-5.26,1.34-2.77,2.15-3.68,3.76c-.91,1.61-1.37,3.51-1.37,5.68s.46,4.02,1.37,5.65c.91,1.63,2.14,2.89,3.68,3.79,1.54.89,3.28,1.34,5.21,1.34Z"/>
    <path class="cls-3" d="M467.2,589.15v-27.61h3.58v7.52l-.37-1.31c.77-2.1,2.07-3.71,3.89-4.81s4.08-1.66,6.79-1.66v3.63c-.14,0-.28,0-.42-.03-.14-.02-.28-.03-.42-.03-2.91,0-5.19.89-6.84,2.66-1.65,1.77-2.47,4.29-2.47,7.55v14.1h-3.73Z"/>
    <path class="cls-3" d="M494.68,589.15l18.52-41.16h7.53l18.58,41.16h-8l-15.93-37.1h3.06l-15.88,37.1h-7.88ZM503.2,579.63l2.06-6h22.23l2.06,6h-26.34Z"/>
    <path class="cls-3" d="M555.77,589.56c-3.02,0-5.73-.68-8.14-2.03-2.41-1.35-4.3-3.22-5.67-5.62-1.37-2.39-2.06-5.21-2.06-8.47s.69-6.08,2.06-8.47c1.37-2.39,3.26-4.25,5.67-5.59,2.41-1.33,5.12-2,8.14-2,2.63,0,4.98.58,7.06,1.73,2.08,1.16,3.72,2.91,4.94,5.26,1.21,2.35,1.82,5.37,1.82,9.05s-.59,6.65-1.76,9.03c-1.18,2.37-2.8,4.15-4.88,5.32-2.08,1.18-4.47,1.76-7.17,1.76ZM556.65,583.27c1.76,0,3.34-.39,4.73-1.18s2.51-1.92,3.35-3.41c.84-1.49,1.26-3.23,1.26-5.23s-.42-3.79-1.26-5.26c-.84-1.47-1.96-2.6-3.35-3.38-1.39-.78-2.97-1.18-4.73-1.18s-3.34.39-4.73,1.18c-1.39.79-2.51,1.91-3.35,3.38-.84,1.47-1.26,3.23-1.26,5.26s.42,3.74,1.26,5.23c.84,1.49,1.96,2.63,3.35,3.41,1.39.78,2.97,1.18,4.73,1.18ZM566.18,589.15v-7.41l.29-8.35-.59-8.35v-19.52h7.29v43.63h-7Z"/>
    <path class="cls-3" d="M590.17,589.15l-13.46-31.4h7.64l11.58,27.69h-3.76l12-27.69h7.06l-13.46,31.4h-7.58Z"/>
    <path class="cls-3" d="M628.62,589.56c-3.49,0-6.54-.7-9.14-2.09-2.61-1.39-4.63-3.3-6.06-5.73-1.43-2.43-2.15-5.19-2.15-8.29s.7-5.91,2.09-8.32c1.39-2.41,3.31-4.3,5.76-5.67,2.45-1.37,5.24-2.06,8.38-2.06s5.78.67,8.17,2c2.39,1.33,4.27,3.21,5.64,5.64,1.37,2.43,2.06,5.29,2.06,8.58,0,.31,0,.67-.03,1.06-.02.39-.05.76-.09,1.12h-26.17v-4.88h22.28l-2.88,1.53c.04-1.8-.33-3.39-1.12-4.76-.79-1.37-1.85-2.45-3.21-3.23-1.35-.78-2.91-1.18-4.67-1.18s-3.38.39-4.73,1.18c-1.35.79-2.41,1.87-3.17,3.26-.76,1.39-1.15,3.03-1.15,4.91v1.18c0,1.88.43,3.55,1.29,5,.86,1.45,2.08,2.57,3.65,3.35,1.57.79,3.37,1.18,5.41,1.18,1.76,0,3.35-.27,4.76-.82,1.41-.55,2.67-1.41,3.76-2.59l3.94,4.53c-1.41,1.65-3.19,2.91-5.32,3.79-2.14.88-4.58,1.32-7.32,1.32Z"/>
    <path class="cls-3" d="M649.38,589.15v-31.4h7v8.64l-.82-2.53c.94-2.12,2.42-3.72,4.44-4.82,2.02-1.1,4.54-1.65,7.56-1.65v7c-.31-.08-.61-.13-.88-.15-.28-.02-.55-.03-.82-.03-2.78,0-5,.81-6.64,2.44-1.65,1.63-2.47,4.05-2.47,7.26v15.23h-7.35Z"/>
    <path class="cls-3" d="M669.72,563.87v-5.88h20.93v5.88h-20.93ZM685.71,589.56c-3.45,0-6.12-.89-8-2.67-1.88-1.78-2.82-4.42-2.82-7.91v-28.16h7.35v27.99c0,1.49.38,2.65,1.15,3.47.76.82,1.83,1.23,3.2,1.23,1.65,0,3.02-.43,4.12-1.29l2.06,5.23c-.86.71-1.92,1.23-3.17,1.59-1.25.35-2.55.53-3.88.53Z"/>
    <path class="cls-3" d="M701.47,552.58c-1.37,0-2.5-.43-3.38-1.29-.88-.86-1.32-1.9-1.32-3.12s.44-2.3,1.32-3.15c.88-.84,2.01-1.26,3.38-1.26s2.5.4,3.38,1.21c.88.8,1.32,1.81,1.32,3.03,0,1.29-.43,2.38-1.29,3.26s-2,1.32-3.41,1.32ZM697.77,589.15v-31.4h7.35v31.4h-7.35Z"/>
    <path class="cls-3" d="M723.4,589.56c-2.63,0-5.15-.34-7.56-1.03-2.41-.69-4.32-1.52-5.73-2.5l2.82-5.59c1.41.9,3.1,1.65,5.06,2.23s3.92.88,5.88.88c2.31,0,3.99-.31,5.03-.94,1.04-.63,1.56-1.47,1.56-2.53,0-.86-.35-1.52-1.06-1.97-.71-.45-1.63-.79-2.76-1.03-1.14-.24-2.4-.45-3.79-.65-1.39-.2-2.78-.46-4.17-.79-1.39-.33-2.66-.82-3.79-1.47-1.14-.65-2.06-1.52-2.76-2.62-.71-1.1-1.06-2.55-1.06-4.35,0-2,.57-3.73,1.71-5.2,1.14-1.47,2.73-2.61,4.79-3.41,2.06-.8,4.5-1.21,7.32-1.21,2.12,0,4.25.24,6.41.71,2.16.47,3.94,1.14,5.35,2l-2.82,5.59c-1.49-.9-2.99-1.52-4.5-1.85-1.51-.33-3.01-.5-4.5-.5-2.23,0-3.89.33-4.97,1-1.08.67-1.62,1.51-1.62,2.53,0,.94.35,1.65,1.06,2.12.71.47,1.63.84,2.76,1.12,1.14.28,2.4.5,3.79.68,1.39.18,2.77.44,4.15.79,1.37.35,2.64.83,3.79,1.44,1.16.61,2.09,1.46,2.79,2.56.71,1.1,1.06,2.53,1.06,4.29,0,1.96-.58,3.67-1.73,5.12-1.16,1.45-2.79,2.58-4.91,3.38-2.12.8-4.65,1.21-7.58,1.21Z"/>
    <path class="cls-3" d="M746.63,552.58c-1.37,0-2.5-.43-3.38-1.29-.88-.86-1.32-1.9-1.32-3.12s.44-2.3,1.32-3.15c.88-.84,2.01-1.26,3.38-1.26s2.5.4,3.38,1.21c.88.8,1.32,1.81,1.32,3.03,0,1.29-.43,2.38-1.29,3.26s-2,1.32-3.41,1.32ZM742.92,589.15v-31.4h7.35v31.4h-7.35Z"/>
    <path class="cls-3" d="M776.67,557.4c2.51,0,4.75.49,6.73,1.47,1.98.98,3.54,2.48,4.67,4.5,1.14,2.02,1.71,4.62,1.71,7.79v17.99h-7.35v-17.05c0-2.78-.66-4.86-1.97-6.23-1.31-1.37-3.15-2.06-5.5-2.06-1.72,0-3.25.35-4.59,1.06-1.33.71-2.36,1.75-3.09,3.15-.73,1.39-1.09,3.15-1.09,5.26v15.88h-7.35v-31.4h7v8.47l-1.23-2.59c1.1-2,2.69-3.54,4.79-4.62,2.1-1.08,4.52-1.62,7.26-1.62Z"/>
    <path class="cls-3" d="M811.42,587.74c-2.98,0-5.67-.64-8.08-1.91-2.41-1.27-4.31-3.05-5.7-5.32-1.39-2.27-2.09-4.94-2.09-8s.7-5.66,2.09-7.94,3.29-4.04,5.7-5.29c2.41-1.25,5.11-1.88,8.08-1.88,2.67,0,5.06.53,7.17,1.59,2.12,1.06,3.81,2.7,5.09,4.94,1.27,2.23,1.91,5.1,1.91,8.58s-.64,6.36-1.91,8.61c-1.27,2.25-2.97,3.92-5.09,5-2.12,1.08-4.51,1.62-7.17,1.62ZM812.36,600.97c-2.9,0-5.73-.38-8.5-1.15-2.76-.76-5.03-1.87-6.79-3.32l3.29-5.53c1.37,1.14,3.11,2.05,5.2,2.73,2.1.69,4.22,1.03,6.38,1.03,3.45,0,5.98-.79,7.58-2.38,1.61-1.59,2.41-3.97,2.41-7.14v-5.59l.59-7.11-.24-7.11v-7.64h7v26.64c0,5.68-1.45,9.87-4.35,12.55-2.9,2.68-7.1,4.03-12.58,4.03ZM812.54,581.51c1.84,0,3.49-.38,4.94-1.15,1.45-.76,2.58-1.82,3.38-3.18.8-1.35,1.21-2.91,1.21-4.67s-.4-3.32-1.21-4.67c-.8-1.35-1.93-2.39-3.38-3.12-1.45-.72-3.1-1.09-4.94-1.09s-3.5.36-4.97,1.09c-1.47.73-2.61,1.76-3.41,3.12-.8,1.35-1.21,2.91-1.21,4.67s.4,3.32,1.21,4.67c.8,1.35,1.94,2.41,3.41,3.18,1.47.76,3.12,1.15,4.97,1.15Z"/>
  </g>
  <g>
    <g>
      <g>
        <path class="cls-3" d="M77.12,23.05h0c-.14,11.95,8.82,21.85,20.67,23.42,85.91,11.36,151.7,85.39,150.65,174.21-1.14,95.91-79.8,172.72-175.71,171.57l-.55,46.6c121.63,1.45,221.42-95.99,222.87-217.62C296.37,108.41,212.64,14.38,103.44.2c-13.84-1.8-26.16,8.9-26.32,22.85Z"/>
        <path class="cls-6" d="M247.15,239.63c-10.49,86.87-84.93,153.68-174.43,152.61l-.55,46.6c101.31,1.21,187.41-66.21,214.2-159.05l-39.22-40.16Z"/>
        <path class="cls-3" d="M45.86,155.94L1.93,198.83c-4.06,3.97-1.3,10.87,4.38,10.94l18.24.22-2.07,173.67c-.34,28.53,21.27,52.54,49.68,55.19l2.72-228.26,18.24.22c5.68.07,8.61-6.77,4.64-10.83l-42.89-43.92c-2.46-2.52-6.5-2.57-9.02-.11Z"/>
      </g>
      <path class="cls-3" d="M318.9,350.44c7.27-81.99,7.94-129.82,9.92-224.24l13.65-1.07c26.64-2.09,49.16,19.47,48.26,46.18-1.27,37.69-2.49,63.96-4.38,82.23h1.32c5.95-20.5,17.19-42.86,28.44-63.36,31.74-55.28,58.85-71.43,91.26-71.43,9.92,0,17.86,1.24,25.79,3.73l-5.57,35.9c-1.98,12.74-13.05,21.91-25.95,21.87-.07,0-.15,0-.22,0-20.5,0-41.66,9.94-70.1,55.28-33.06,50.93-47.61,93.17-52.24,142.87h0c-2.64,32.96-29.49,58.75-62.54,60.06l-4.92.19,7.27-88.2Z"/>
      <path class="cls-3" d="M765.51,182.11h-50.76v-63.33c-12.19-1.03-24.64-1.58-37.09-1.58-103.82,0-167.3,59.63-167.3,190.7,0,95.03,31.08,132.3,70.09,132.3s78.04-39.76,113.08-121.74h1.32c-1.98,19.87-3.31,47.83-1.98,118.02h0c34.78-1.72,62.15-30.37,62.26-65.19.19-63.02,3.22-99.34,7.84-159.67l2.54-29.5ZM700.81,194.23c-6.61,89.44-69.44,190.69-96.55,190.69-14.55,0-28.44-29.82-28.44-88.83,0-83.85,29.1-131.69,85.97-131.69,11.24,0,23.14.62,41,3.73l-1.98,26.09Z"/>
      <polygon class="cls-5" points="794.3 122.5 794.3 171.28 724.75 171.28 724.75 99.66 774.06 99.66 759.39 134.06 759.39 134.07 759.42 134.05 794.3 122.5"/>
    </g>
    <g>
      <polygon class="cls-4" points="846.26 101.18 794.69 116.8 770.42 124.84 770.41 124.84 780.61 100.92 801.23 52.52 810.01 88.29 811.12 89.39 846.26 101.18"/>
      <polygon class="cls-1" points="810.01 88.29 810.01 88.29 794.69 102.43 770.42 124.84 770.41 124.85 770.41 124.84 780.61 100.92 801.23 52.52 801.24 52.51 810.01 88.29"/>
      <polygon class="cls-2" points="810.01 88.29 810.01 88.29 794.69 102.43 770.42 124.84 770.41 124.85 770.41 124.84 780.61 100.92 801.23 52.52 801.24 52.51 810.01 88.29"/>
    </g>
  </g>
</svg>