<?xml version="1.0" encoding="UTF-8"?>
<svg id="Layer_1" data-name="Layer 1" xmlns="http://www.w3.org/2000/svg" xmlns:xlink="http://www.w3.org/1999/xlink" viewBox="0 0 846.26 680.55">
  <defs>
    <style>
      .cls-1 {
        fill: url(#linear-gradient-2);
      }

      .cls-2 {
        letter-spacing: -.01em;
      }

      .cls-2, .cls-3, .cls-4, .cls-5, .cls-6, .cls-7, .cls-8, .cls-9, .cls-10, .cls-11 {
        font-size: 58.8px;
      }

      .cls-2, .cls-4, .cls-5, .cls-6, .cls-7, .cls-8, .cls-9, .cls-10, .cls-11 {
        font-family: Montserrat-SemiBold, Montserrat;
        font-weight: 600;
      }

      .cls-3 {
        font-family: Montserrat-Medium, Montserrat;
        font-weight: 500;
        letter-spacing: -.02em;
      }

      .cls-4 {
        letter-spacing: -.03em;
      }

      .cls-12 {
        fill: url(#linear-gradient-3);
      }

      .cls-5 {
        letter-spacing: -.02em;
      }

      .cls-13 {
        letter-spacing: -.02em;
      }

      .cls-13, .cls-14 {
        font-family: Montserrat-Regular, Montserrat;
        font-size: 52.6px;
      }

      .cls-15 {
        fill: #143745;
      }

      .cls-6 {
        letter-spacing: -.02em;
      }

      .cls-16, .cls-17 {
        fill: #064c4f;
      }

      .cls-17 {
        font-family: AdapterArabicDisplay-Sb, 'Adapter Arabic Display';
        font-size: 44.8px;
      }

      .cls-18 {
        fill: #9ccc0b;
      }

      .cls-7 {
        letter-spacing: -.03em;
      }

      .cls-8 {
        letter-spacing: 0em;
      }

      .cls-9 {
        letter-spacing: -.03em;
      }

      .cls-19 {
        fill: url(#linear-gradient);
      }

      .cls-10 {
        letter-spacing: -.02em;
      }

      .cls-11 {
        letter-spacing: -.02em;
      }

      .cls-14 {
        letter-spacing: -.03em;
      }
    </style>
    <linearGradient id="linear-gradient" x1="72.17" y1="339.25" x2="286.37" y2="339.25" gradientUnits="userSpaceOnUse">
      <stop offset=".03" stop-color="#9ccc0b"/>
      <stop offset=".12" stop-color="#7daa17"/>
      <stop offset=".24" stop-color="#5d8725"/>
      <stop offset=".36" stop-color="#426a31"/>
      <stop offset=".49" stop-color="#2e5339"/>
      <stop offset=".63" stop-color="#1f4340"/>
      <stop offset=".79" stop-color="#163943"/>
      <stop offset="1" stop-color="#143745"/>
    </linearGradient>
    <linearGradient id="linear-gradient-2" x1="819.81" y1="74.39" x2="750.57" y2="103.5" gradientUnits="userSpaceOnUse">
      <stop offset="0" stop-color="#064c4f"/>
      <stop offset=".22" stop-color="#084e4d"/>
      <stop offset=".38" stop-color="#125649"/>
      <stop offset=".53" stop-color="#226442"/>
      <stop offset=".66" stop-color="#397737"/>
      <stop offset=".79" stop-color="#56902a"/>
      <stop offset=".9" stop-color="#79ae1a"/>
      <stop offset="1" stop-color="#9ccc0b"/>
    </linearGradient>
    <linearGradient id="linear-gradient-3" x1="773.86" y1="99.23" x2="809.84" y2="67.5" gradientUnits="userSpaceOnUse">
      <stop offset=".03" stop-color="#9ccc0b"/>
      <stop offset=".12" stop-color="#79ae1a"/>
      <stop offset=".24" stop-color="#56902a"/>
      <stop offset=".36" stop-color="#397737"/>
      <stop offset=".49" stop-color="#226442"/>
      <stop offset=".63" stop-color="#125649"/>
      <stop offset=".79" stop-color="#084e4d"/>
      <stop offset="1" stop-color="#064c4f"/>
    </linearGradient>
  </defs>
  <text class="cls-17" transform="translate(119.99 654.13) scale(.84 1)"><tspan x="0" y="0">حقيقـــة الأرقـــــــــام للدعايـــــــة والاعــــلان</tspan></text>
  <text class="cls-16" transform="translate(12.15 589.15)"><tspan class="cls-11" x="0" y="0">Digits R</tspan><tspan class="cls-9" x="229.31" y="0">e</tspan><tspan class="cls-6" x="263.94" y="0">ali</tspan><tspan class="cls-7" x="330.44" y="0">t</tspan><tspan class="cls-5" x="353.72" y="0">y</tspan><tspan class="cls-3" x="386.65" y="0"> </tspan><tspan class="cls-14" x="401.41" y="0">f</tspan><tspan class="cls-13" x="417.82" y="0">or </tspan><tspan class="cls-10" x="482.83" y="0">A</tspan><tspan class="cls-5" x="525.51" y="0">d</tspan><tspan class="cls-4" x="564.85" y="0">v</tspan><tspan class="cls-5" x="596.89" y="0">e</tspan><tspan class="cls-8" x="632.41" y="0">r</tspan><tspan class="cls-5" x="656.93" y="0">tisi</tspan><tspan class="cls-2" x="741.89" y="0">n</tspan><tspan class="cls-5" x="781.4" y="0">g</tspan></text>
  <g>
    <g>
      <g>
        <path class="cls-15" d="M77.12,23.05h0c-.14,11.95,8.82,21.85,20.67,23.42,85.91,11.36,151.7,85.39,150.65,174.21-1.14,95.91-79.8,172.72-175.71,171.57l-.55,46.6c121.63,1.45,221.42-95.99,222.87-217.62C296.37,108.41,212.64,14.38,103.44.2c-13.84-1.8-26.16,8.9-26.32,22.85Z"/>
        <path class="cls-19" d="M247.15,239.63c-10.49,86.87-84.93,153.68-174.43,152.61l-.55,46.6c101.31,1.21,187.41-66.21,214.2-159.05l-39.22-40.16Z"/>
        <path class="cls-15" d="M45.86,155.94L1.93,198.83c-4.06,3.97-1.3,10.87,4.38,10.94l18.24.22-2.07,173.67c-.34,28.53,21.27,52.54,49.68,55.19l2.72-228.26,18.24.22c5.68.07,8.61-6.77,4.64-10.83l-42.89-43.92c-2.46-2.52-6.5-2.57-9.02-.11Z"/>
      </g>
      <path class="cls-15" d="M318.9,350.44c7.27-81.99,7.94-129.82,9.92-224.24l13.65-1.07c26.64-2.09,49.16,19.47,48.26,46.18-1.27,37.69-2.49,63.96-4.38,82.23h1.32c5.95-20.5,17.19-42.86,28.44-63.36,31.74-55.28,58.85-71.43,91.26-71.43,9.92,0,17.86,1.24,25.79,3.73l-5.57,35.9c-1.98,12.74-13.05,21.91-25.95,21.87-.07,0-.15,0-.22,0-20.5,0-41.66,9.94-70.1,55.28-33.06,50.93-47.61,93.17-52.24,142.87h0c-2.64,32.96-29.49,58.75-62.54,60.06l-4.92.19,7.27-88.2Z"/>
      <path class="cls-15" d="M765.51,182.11h-50.76v-63.33c-12.19-1.03-24.64-1.58-37.09-1.58-103.82,0-167.3,59.63-167.3,190.7,0,95.03,31.08,132.3,70.09,132.3s78.04-39.76,113.08-121.74h1.32c-1.98,19.87-3.31,47.83-1.98,118.02h0c34.78-1.72,62.15-30.37,62.26-65.19.19-63.02,3.22-99.34,7.84-159.67l2.54-29.5ZM700.81,194.23c-6.61,89.44-69.44,190.69-96.55,190.69-14.55,0-28.44-29.82-28.44-88.83,0-83.85,29.1-131.69,85.97-131.69,11.24,0,23.14.62,41,3.73l-1.98,26.09Z"/>
      <polygon class="cls-18" points="794.3 122.5 794.3 171.28 724.75 171.28 724.75 99.66 774.06 99.66 759.39 134.06 759.39 134.07 759.42 134.05 794.3 122.5"/>
    </g>
    <g>
      <polygon class="cls-16" points="846.26 101.18 794.69 116.8 770.42 124.84 770.41 124.84 780.61 100.92 801.23 52.52 810.01 88.29 811.12 89.39 846.26 101.18"/>
      <polygon class="cls-1" points="810.01 88.29 810.01 88.29 794.69 102.43 770.42 124.84 770.41 124.85 770.41 124.84 780.61 100.92 801.23 52.52 801.24 52.51 810.01 88.29"/>
      <polygon class="cls-12" points="810.01 88.29 810.01 88.29 794.69 102.43 770.42 124.84 770.41 124.85 770.41 124.84 780.61 100.92 801.23 52.52 801.24 52.51 810.01 88.29"/>
    </g>
  </g>
</svg>