<?xml version="1.0" encoding="UTF-8"?>
<svg id="Layer_1" data-name="Layer 1" xmlns="http://www.w3.org/2000/svg" viewBox="0 0 200 200">
  <defs>
    <style>
      .cls-1 {
        fill: #143745;
      }

      .cls-2 {
        fill: #b7cc34;
      }
    </style>
  </defs>
  <path class="cls-1" d="M120.02,132.13l-74.79,2.99,80.44,3.21c-2.1-1.85-4-3.93-5.65-6.2Z"/>
  <path class="cls-1" d="M113.17,115.24l-97.36,3.04,98.76,3.08c-.63-1.98-1.1-4.02-1.4-6.12Z"/>
  <path class="cls-2" d="M128.19,140.36l-69.37,3.18,88.39,4.05c-7.08-.64-13.6-3.23-19.01-7.23Z"/>
  <path class="cls-2" d="M115.39,123.69l-88.59,3.01,91.66,3.12c-1.2-1.93-2.23-3.98-3.07-6.13Z"/>
  <g>
    <path class="cls-2" d="M112.78,109.86c0-1.06.05-2.1.13-3.14l-110.05,3.13,110.05,3.13c-.08-1.03-.13-2.08-.13-3.13Z"/>
    <path class="cls-1" d="M114.56,98.35l-98.76,3.08,97.36,3.04c.3-2.1.77-4.15,1.4-6.12Z"/>
    <path class="cls-2" d="M118.46,89.9l-91.66,3.12,88.59,3.01c.84-2.14,1.87-4.19,3.07-6.13Z"/>
    <path class="cls-1" d="M125.68,81.38l-80.44,3.21,74.79,2.99c1.65-2.27,3.55-4.35,5.65-6.2Z"/>
    <path class="cls-2" d="M128.2,79.35c5.42-4,11.94-6.59,19.03-7.23l-88.4,4.05,69.37,3.18Z"/>
    <path class="cls-1" d="M144.53,125.41l9.61-11.82c.16.02.33.03.49.03,2.08,0,3.77-1.69,3.77-3.77,0-1.49-.87-2.78-2.12-3.39v-23.84c0-.91-.74-1.64-1.64-1.64s-1.64.74-1.64,1.64v23.84c-1.26.61-2.12,1.9-2.12,3.39,0,.7.19,1.35.52,1.91l-9.41,11.57c-.57.7-.47,1.74.24,2.31h0c.7.57,1.74.47,2.31-.24Z"/>
    <path class="cls-1" d="M150.68,63.54h0s0,0,0,0c-1.95,0-3.87.12-5.76.36l-62.49,3.86,68.24,4.21s0,0,0,0c20.93,0,37.9,16.97,37.9,37.9s-16.97,37.9-37.9,37.9c0,0,0,0,0,0l-68.24,4.21,62.48,3.85c1.89.24,3.82.36,5.77.36,25.58,0,46.32-20.74,46.32-46.32s-20.74-46.32-46.32-46.32Z"/>
    <path class="cls-1" d="M162.23,76.62c-3.61-1.25-7.48-1.93-11.51-1.93-19.42,0-35.17,15.74-35.17,35.17s15.75,35.17,35.17,35.17c4.03,0,7.9-.68,11.51-1.93-2.49.58-5.08.88-7.74.88-18.84,0-34.12-15.28-34.12-34.12s15.28-34.12,34.12-34.12c2.66,0,5.26.31,7.74.88Z"/>
  </g>
</svg>