<?xml version="1.0" encoding="UTF-8"?>
<svg id="Layer_1" data-name="Layer 1" xmlns="http://www.w3.org/2000/svg" viewBox="0 0 1080 1080">
  <defs>
    <style>
      .cls-1 {
        fill: #bbc732;
      }

      .cls-2 {
        stroke: #183745;
        stroke-miterlimit: 10;
        stroke-width: .75px;
      }

      .cls-2, .cls-3 {
        fill: #183745;
      }
    </style>
  </defs>
  <g>
    <path class="cls-3" d="M537.46,560.78c2.39,4.2,4.8,8.4,7.2,12.6v-13.32l-7.2.72ZM537.46,560.78c2.39,4.2,4.8,8.4,7.2,12.6v-13.32l-7.2.72Z"/>
    <path class="cls-3" d="M729.75,746.57h-35.99c-.45.3-.9.58-1.34.85h-48.44c-.17-.28-.32-.57-.49-.85-32.94-57.73-65.89-115.46-98.83-173.19h-41.78v.06h-75.4c-4.33,0-8.17,2.17-10.49,5.48-.45.62-.83,1.3-1.15,2.02h-.02v.02c-.38.81-.66,1.66-.85,2.54-.21.89-.3,1.81-.3,2.75v159.97h-75.87v-137.63c0-6.74.06-24.39,0-48.09,0-1.07-.02-2.07,0-3.05v-.15c-.17-1.71-.26-3.43-.26-5.2,0-7.82,1.71-15.22,4.78-21.87,8.29-18.01,26.48-30.49,47.58-30.49h185.1c4.09.17,25.67.6,43.49-16.52,16.2-15.56,18.59-35.37,18.89-44.04.19-5.5,1.07-31.27-18.89-48.56-17.35-15.01-38.18-13.02-42.23-12.54-22.28.11-44.58.23-66.87.32-14.18.08-28.38.15-42.57.21-.72.02-1.45.02-2.17.02v-77.71h2.17c36.05-.09,72.1-.21,108.17-.3,7.38,0,14.48.28,21.32.87,36.26,3.01,65.04,14.05,86.36,33.07,12.88,11.51,22.49,25.45,28.82,41.85,6.14,15.88,9.21,34.05,9.21,54.53,0,25.58-4.09,47.92-12.26,67.02-.23.58-.49,1.15-.75,1.71-6.14,13.83-14.48,25.92-25.01,36.3-6.69,6.57-14.09,12.28-22.23,17.12-10.17,6.05-21.49,10.74-33.94,14.09,34.09,59.8,68.15,119.59,102.24,179.41Z"/>
    <path class="cls-3" d="M456.4,378.53c-42.34.02-84.67.04-127.01.06-.23,122.66-.43,245.31-.66,367.99h-83.16c.41-122.64.83-245.29,1.24-367.93-42.3.02-84.61.04-126.93.06.24-25.71.49-51.42.73-77.13h335.36c.13,25.65.28,51.31.41,76.96Z"/>
    <path class="cls-3" d="M537.46,560.78c2.39,4.2,4.8,8.4,7.2,12.6v-13.32l-7.2.72Z"/>
    <path class="cls-1" d="M973.75,439.12c0,38.14-14.6,72.67-38.22,97.64-23.64,24.98-56.24,40.44-92.29,40.44h-79.01c-3.15-.36-8.78-.55-13.05,2.86-7.52,5.99-6.12,19.1-5.74,23.41,1.79,20.06,1.39,71.25-.06,143.09,0,.24-.02.49-.02.73h-8.53c-.13-.24-.28-.49-.41-.73-33.6-58.69-67.19-117.36-100.77-176.05,11.9-3.39,22.73-8.14,32.47-14.26,7.78-4.9,14.86-10.68,21.27-17.33,10.06-10.51,18.04-22.75,23.92-36.75h129.34c16.29,0,31.02-6.99,41.7-18.27,10.66-11.28,17.25-26.9,17.25-44.13,0-34.45-26.39-62.38-58.95-62.38h-125.71c-3.97-10.92-9.3-20.76-15.99-29.53,0,0-5.07-6.63-11.56-12.85-21.23-20.27-57.66-32.49-64.62-34.77,72.84.26,145.67.53,218.49.79,72.08,0,130.51,61.82,130.51,138.08Z"/>
  </g>
  <g>
    <path class="cls-2" d="M125.55,855.8h28.76c-2.92-15.53-9.02-25.32-18.3-29.37l2.78-6.18c11.78,4.33,19.42,16.24,22.94,35.71v6.18h-36.18v-6.34Z"/>
    <path class="cls-2" d="M187.03,822.79v41.29c0,5.47-1.34,9.76-4.01,12.88s-6.47,4.68-11.38,4.68c-4.44,0-8.35-1.31-11.72-3.92l3.46-4.95c2.42,1.69,5.12,2.54,8.1,2.54,2.53,0,4.55-.99,6.05-2.97,1.5-1.98,2.26-4.6,2.26-7.85v-41.69h7.25Z"/>
    <path class="cls-2" d="M209.37,862.14h-7.67v-61.66h7.67v61.66Z"/>
    <path class="cls-2" d="M256.94,855.8h7.55v6.34h-7.55v1.94c0,5.52-1.74,9.83-5.23,12.92-3.49,3.09-8.39,4.64-14.72,4.64-5.76,0-10.94-1.39-15.52-4.16l3.46-5.43c4.47,2.17,8.54,3.25,12.23,3.25s6.9-.97,9.15-2.91c2.25-1.94,3.37-4.58,3.37-7.91v-2.34h-8.43c-6.13,0-10.87-1.59-14.23-4.78-3.36-3.18-5.04-7.76-5.04-13.73,0-6.45,2.16-11.53,6.49-15.26,4.33-3.72,10.05-5.59,17.16-5.59h11.3v33.01ZM245.89,829.09c-5.17,0-9.17,1.28-12,3.84-2.82,2.56-4.24,6.1-4.24,10.62,0,8.16,3.95,12.25,11.85,12.25h8.1v-26.71h-3.71Z"/>
    <path class="cls-2" d="M262.75,855.8h16.49v6.34h-16.49v-6.34Z"/>
    <path class="cls-2" d="M277.51,855.8h16.49v6.34h-16.49v-6.34Z"/>
    <path class="cls-2" d="M292.27,862.14v-6.34h11.13c-1.91-2.83-2.87-6.86-2.87-12.09,0-6.37,1.87-11.58,5.61-15.65,3.74-4.07,8.63-6.1,14.67-6.1s10.59,1.73,14.23,5.19c3.64,3.46,5.46,8.26,5.46,14.39,0,2.83-.64,5.57-1.92,8.22-1.28,2.65-2.97,4.67-5.08,6.04h15.14v6.34h-56.37ZM311.24,855.8h7.84c4.36,0,7.72-1.27,10.1-3.82,2.38-2.55,3.56-6.11,3.56-10.68,0-4.07-1.1-7.27-3.31-9.59-2.21-2.32-5.11-3.49-8.71-3.49s-6.55,1.4-8.94,4.2c-2.39,2.8-3.58,6.57-3.58,11.29,0,5.44,1.01,9.47,3.04,12.09Z"/>
    <path class="cls-2" d="M346.91,855.8h11.81v-55.32h7.67v61.66h-19.48v-6.34Z"/>
    <path class="cls-2" d="M388.74,862.14h-7.67v-61.66h7.67v61.66Z"/>
    <path class="cls-2" d="M435.96,862.14h-15.73v-6.34h8.39v-55.32h7.34v39.75c5.54-12.18,13.51-18.27,23.91-18.27,13.18,0,19.78,6.87,19.78,20.61v5.87c0,2.19.78,3.97,2.34,5.33,1.56,1.36,3.63,2.04,6.22,2.04h1.39v6.34h-.29c-4.83,0-8.05-1.55-9.66-4.64v4.64h-34.87c-3.57,0-6.51-2.09-8.81-6.26v6.26ZM436.13,848.83c.76,4.65,3.54,6.97,8.35,6.97h27.83v-12.88c0-9.7-4.67-14.54-14-14.54-8.83,0-16.22,6.82-22.18,20.45Z"/>
    <path class="cls-2" d="M487.87,855.8h16.49v6.34h-16.49v-6.34Z"/>
    <path class="cls-2" d="M502.63,855.8h11.81v-33.01h7.67v25.24c0,2.38.78,4.27,2.34,5.67,1.56,1.4,3.63,2.1,6.22,2.1h3.12v6.34h-1.98c-4.81,0-8.04-1.55-9.7-4.64v4.64h-19.48v-6.34ZM510.97,865.19c3.01,0,4.51,1.52,4.51,4.56s-1.5,4.52-4.51,4.52-4.47-1.51-4.47-4.52,1.49-4.56,4.47-4.56ZM524.21,865.19c2.98,0,4.47,1.52,4.47,4.56s-1.49,4.52-4.47,4.52-4.51-1.51-4.51-4.52,1.5-4.56,4.51-4.56Z"/>
    <path class="cls-2" d="M532.06,855.8h16.49v6.34h-16.49v-6.34Z"/>
    <path class="cls-2" d="M565.11,862.14h-18.3v-6.34h10.96v-55.32h7.34v39.75c5.54-12.18,13.51-18.27,23.91-18.27,13.18,0,19.77,6.87,19.77,20.61v5.87c0,2.19.78,3.97,2.34,5.33,1.56,1.36,3.63,2.04,6.22,2.04h1.39v6.34h-.29c-4.83,0-8.05-1.55-9.66-4.64v4.64h-34.87c-3.57,0-6.51-2.09-8.81-6.26v6.26ZM565.28,848.83c.76,4.65,3.54,6.97,8.35,6.97h27.83v-12.88c0-9.7-4.67-14.54-14-14.54-8.83,0-16.22,6.82-22.18,20.45Z"/>
    <path class="cls-2" d="M654.46,855.8c-2.25-2.27-4.06-7.23-5.44-14.86-.87-4.78-2.1-8.08-3.69-9.91-1.59-1.82-3.98-2.73-7.19-2.73-3.88,0-8.05,1.08-12.52,3.25l-2.99-5.59c4.41-2.67,9.61-4,15.6-4,4.98,0,8.89,1.25,11.74,3.75,2.85,2.5,4.81,6.96,5.88,13.38,1.32,8.48,3.4,14.06,6.24,16.72h6.2v6.34h-51.27v-6.34h37.44ZM637.64,806.22c2.98,0,4.47,1.52,4.47,4.56s-1.49,4.52-4.47,4.52-4.47-1.51-4.47-4.52,1.49-4.56,4.47-4.56Z"/>
    <path class="cls-2" d="M666.6,855.8h16.49v6.34h-16.49v-6.34Z"/>
    <path class="cls-2" d="M681.36,855.8h11.81v-33.01h7.67v39.35h-19.48v-6.34ZM689.71,806.22c3.01,0,4.51,1.52,4.51,4.56s-1.5,4.52-4.51,4.52-4.47-1.51-4.47-4.52,1.49-4.56,4.47-4.56ZM702.95,806.22c2.98,0,4.47,1.52,4.47,4.56s-1.49,4.52-4.47,4.52-4.51-1.51-4.51-4.52,1.5-4.56,4.51-4.56Z"/>
    <path class="cls-2" d="M755.06,862.14c-6.1,0-10.91-1.64-14.42-4.91-3.51-3.28-5.27-7.81-5.27-13.59,0-6.45,2.16-11.53,6.49-15.26,4.33-3.72,10.05-5.59,17.16-5.59h13.03v33.01h10.29v6.34h-27.28ZM759.28,829.09c-5.17,0-9.17,1.28-12,3.84-2.83,2.56-4.24,6.1-4.24,10.62,0,8.16,3.93,12.25,11.81,12.25h9.87v-26.71h-5.44ZM749.33,806.22c3.01,0,4.51,1.52,4.51,4.56s-1.5,4.52-4.51,4.52-4.47-1.51-4.47-4.52,1.49-4.56,4.47-4.56ZM762.57,806.22c2.98,0,4.47,1.52,4.47,4.56s-1.49,4.52-4.47,4.52-4.51-1.51-4.51-4.52,1.5-4.56,4.51-4.56Z"/>
    <path class="cls-2" d="M780.61,855.8h16.49v6.34h-16.49v-6.34Z"/>
    <path class="cls-2" d="M795.37,855.8h16.49v6.34h-16.49v-6.34Z"/>
    <path class="cls-2" d="M810.13,855.8h11.81v-33.01h7.67v25.24c0,2.38.78,4.27,2.34,5.67,1.56,1.4,3.63,2.1,6.22,2.1h3.12v6.34h-1.98c-4.81,0-8.04-1.55-9.7-4.64v4.64h-19.48v-6.34ZM818.48,865.19c3.01,0,4.51,1.52,4.51,4.56s-1.5,4.52-4.51,4.52-4.47-1.51-4.47-4.52,1.49-4.56,4.47-4.56ZM831.72,865.19c2.98,0,4.47,1.52,4.47,4.56s-1.49,4.52-4.47,4.52-4.51-1.51-4.51-4.52,1.5-4.56,4.51-4.56Z"/>
    <path class="cls-2" d="M839.56,855.8h16.49v6.34h-16.49v-6.34Z"/>
    <path class="cls-2" d="M854.32,855.8h11.81v-33.01h7.67v25.24c0,2.38.78,4.27,2.34,5.67,1.56,1.4,3.63,2.1,6.22,2.1h3.12v6.34h-1.98c-4.81,0-8.04-1.55-9.7-4.64v4.64h-19.48v-6.34ZM869.92,806.22c2.98,0,4.47,1.52,4.47,4.56s-1.49,4.52-4.47,4.52-4.47-1.51-4.47-4.52,1.49-4.56,4.47-4.56Z"/>
    <path class="cls-2" d="M883.75,855.8h13.54c-2.98-3.14-4.47-7.23-4.47-12.25,0-6.45,2.14-11.52,6.43-15.22,4.29-3.7,10.03-5.55,17.22-5.55h11.3v33.01h9.57v6.34h-53.59v-6.34ZM916.72,829.09c-5.14,0-9.14,1.27-11.97,3.82s-4.26,6.1-4.26,10.64c0,8.16,3.94,12.25,11.81,12.25h8.14v-26.71h-3.71ZM907.4,806.22c2.98,0,4.47,1.52,4.47,4.56s-1.49,4.52-4.47,4.52-4.51-1.51-4.51-4.52,1.5-4.56,4.51-4.56ZM920.6,806.22c3.01,0,4.51,1.52,4.51,4.56s-1.5,4.52-4.51,4.52-4.47-1.51-4.47-4.52,1.49-4.56,4.47-4.56Z"/>
    <path class="cls-2" d="M935.65,855.8h11.81v-33.01h7.67v39.35h-19.48v-6.34ZM944,806.22c3.01,0,4.51,1.52,4.51,4.56s-1.5,4.52-4.51,4.52-4.47-1.51-4.47-4.52,1.49-4.56,4.47-4.56ZM957.24,806.22c2.98,0,4.47,1.52,4.47,4.56s-1.49,4.52-4.47,4.52-4.51-1.51-4.51-4.52,1.5-4.56,4.51-4.56Z"/>
  </g>
  <g>
    <path class="cls-1" d="M143.39,911.2h-11.62v34.6h-9.2v-34.6h-11.56v-7.77h32.38v7.77Z"/>
    <path class="cls-1" d="M168.89,933.32h-18.97c.3,4.39,2.96,6.59,7.98,6.59,3.2,0,6.01-.79,8.44-2.36v6.74c-2.69,1.5-6.18,2.25-10.48,2.25-4.7,0-8.34-1.35-10.94-4.06-2.59-2.71-3.89-6.49-3.89-11.33s1.4-9,4.2-11.94c2.8-2.93,6.25-4.4,10.34-4.4s7.52,1.31,9.84,3.93c2.32,2.62,3.48,6.17,3.48,10.67v3.93ZM160.57,927.59c0-4.33-1.69-6.5-5.06-6.5-1.44,0-2.68.62-3.73,1.86-1.05,1.24-1.69,2.79-1.92,4.64h10.71Z"/>
    <path class="cls-1" d="M196.27,944.7c-2.03,1.22-4.95,1.83-8.78,1.83-4.47,0-8.09-1.41-10.85-4.22-2.76-2.82-4.15-6.45-4.15-10.9,0-5.14,1.48-9.19,4.45-12.16,2.96-2.96,6.93-4.45,11.89-4.45,3.43,0,5.91.47,7.44,1.42v7.92c-1.87-1.46-3.97-2.19-6.28-2.19-2.58,0-4.62.78-6.12,2.35-1.51,1.57-2.26,3.73-2.26,6.49s.72,4.78,2.16,6.31c1.44,1.53,3.42,2.29,5.94,2.29,2.23,0,4.42-.73,6.56-2.19v7.5Z"/>
    <path class="cls-1" d="M230.07,945.79h-8.95v-17.19c0-4.43-1.55-6.65-4.66-6.65-1.59,0-2.88.62-3.86,1.86s-1.48,2.82-1.48,4.73v17.25h-8.98v-44.79h8.98v19.03h.11c2.2-3.49,5.18-5.23,8.95-5.23,6.59,0,9.88,4.14,9.88,12.41v18.58Z"/>
    <path class="cls-1" d="M265.27,945.79h-8.95v-16.81c0-4.69-1.61-7.03-4.83-7.03-1.55,0-2.83.62-3.83,1.86-1,1.24-1.51,2.82-1.51,4.73v17.25h-8.98v-30.25h8.98v4.79h.11c2.14-3.68,5.25-5.52,9.34-5.52,6.44,0,9.66,4.16,9.66,12.47v18.52Z"/>
    <path class="cls-1" d="M286.23,946.53c-4.85,0-8.66-1.41-11.43-4.24s-4.16-6.66-4.16-11.51,1.44-8.92,4.32-11.74c2.88-2.83,6.77-4.24,11.67-4.24s8.62,1.41,11.36,4.24c2.75,2.83,4.12,6.56,4.12,11.21,0,5.02-1.42,8.99-4.25,11.91-2.83,2.92-6.71,4.37-11.63,4.37ZM286.45,921.95c-2.12,0-3.77.76-4.94,2.28-1.17,1.52-1.76,3.66-1.76,6.44,0,5.81,2.25,8.71,6.76,8.71s6.45-2.98,6.45-8.95c0-5.65-2.17-8.48-6.5-8.48Z"/>
    <path class="cls-1" d="M316.62,935.54c0,1.28.29,2.25.88,2.91.59.66,1.37.99,2.36.99.49,0,.98-.05,1.48-.15.49-.1.98-.2,1.48-.29v6.56c-1.08.3-2.22.54-3.42.72s-2.46.28-3.76.28c-1.19,0-2.28-.21-3.25-.62-.98-.41-1.81-1.01-2.5-1.79s-1.23-1.72-1.6-2.82c-.38-1.1-.57-2.34-.57-3.72v-36.6h8.92v34.54Z"/>
    <path class="cls-1" d="M340.45,946.53c-4.85,0-8.66-1.41-11.43-4.24s-4.16-6.66-4.16-11.51,1.44-8.92,4.32-11.74c2.88-2.83,6.77-4.24,11.67-4.24s8.62,1.41,11.36,4.24c2.75,2.83,4.12,6.56,4.12,11.21,0,5.02-1.42,8.99-4.25,11.91-2.83,2.92-6.71,4.37-11.63,4.37ZM340.68,921.95c-2.12,0-3.77.76-4.94,2.28-1.17,1.52-1.76,3.66-1.76,6.44,0,5.81,2.25,8.71,6.76,8.71s6.45-2.98,6.45-8.95c0-5.65-2.17-8.48-6.5-8.48Z"/>
    <path class="cls-1" d="M390.67,942.33c0,5.61-1.56,9.96-4.69,13.04-3.12,3.08-7.65,4.62-13.58,4.62-3.92,0-7.03-.58-9.32-1.74v-7.86c2.99,1.81,6.01,2.72,9.06,2.72s5.38-.83,7.04-2.5c1.67-1.66,2.5-3.92,2.5-6.78v-2.39h-.11c-2.04,3.39-5.07,5.08-9.06,5.08-3.71,0-6.66-1.36-8.83-4.08-2.18-2.72-3.27-6.36-3.27-10.93,0-5.12,1.21-9.19,3.64-12.2,2.42-3.01,5.61-4.52,9.57-4.52,3.54,0,6.19,1.42,7.95,4.25h.11v-3.52h8.98v26.8ZM381.81,931.26v-2.39c0-1.91-.54-3.54-1.63-4.89-1.09-1.35-2.5-2.02-4.25-2.02-1.99,0-3.55.81-4.69,2.42s-1.7,3.89-1.7,6.82c0,2.52.54,4.52,1.62,5.98,1.08,1.47,2.56,2.2,4.43,2.2s3.36-.74,4.5-2.23c1.15-1.49,1.72-3.45,1.72-5.89Z"/>
    <path class="cls-1" d="M425.86,915.54l-11.82,32.68c-2.84,7.86-7.12,11.79-12.84,11.79-2.18,0-3.97-.26-5.37-.77v-7.45c1.19.73,2.49,1.09,3.89,1.09,2.31,0,3.92-1.13,4.83-3.4l1.53-3.75-11.82-30.19h9.94l5.43,18.41c.34,1.14.61,2.49.79,4.05h.11c.17-1.14.48-2.47.94-3.99l5.48-18.46h8.89Z"/>
    <path class="cls-1" d="M480.45,945.79h-10.54l-6.33-10.9c-.47-.83-.93-1.57-1.36-2.22-.44-.65-.88-1.21-1.32-1.67-.45-.46-.91-.82-1.39-1.06-.48-.25-1.01-.37-1.58-.37h-2.47v16.22h-9.17v-42.37h14.54c9.88,0,14.83,3.84,14.83,11.52,0,1.48-.22,2.84-.65,4.09-.44,1.25-1.05,2.38-1.85,3.38-.8,1-1.76,1.87-2.88,2.6-1.13.73-2.38,1.3-3.76,1.71v.12c.61.2,1.19.52,1.76.96s1.12.96,1.65,1.55c.53.59,1.04,1.23,1.52,1.91s.92,1.34,1.32,1.99l7.7,12.53ZM455.46,910.58v11.79h3.98c1.97,0,3.55-.59,4.74-1.77,1.21-1.2,1.82-2.69,1.82-4.46,0-3.7-2.13-5.55-6.39-5.55h-4.15Z"/>
    <path class="cls-1" d="M508.06,933.32h-18.97c.3,4.39,2.96,6.59,7.98,6.59,3.2,0,6.01-.79,8.44-2.36v6.74c-2.69,1.5-6.18,2.25-10.48,2.25-4.7,0-8.34-1.35-10.94-4.06-2.59-2.71-3.89-6.49-3.89-11.33s1.4-9,4.2-11.94c2.8-2.93,6.25-4.4,10.34-4.4s7.52,1.31,9.84,3.93c2.32,2.62,3.48,6.17,3.48,10.67v3.93ZM499.74,927.59c0-4.33-1.69-6.5-5.06-6.5-1.44,0-2.68.62-3.74,1.86-1.05,1.24-1.69,2.79-1.92,4.64h10.71Z"/>
    <path class="cls-1" d="M511.5,944.99v-7.56c1.48.93,2.95,1.62,4.42,2.07s2.85.68,4.16.68c1.59,0,2.84-.23,3.76-.68.92-.45,1.38-1.14,1.38-2.07,0-.59-.21-1.08-.62-1.48-.42-.39-.95-.74-1.6-1.03s-1.37-.56-2.14-.8c-.78-.24-1.52-.5-2.24-.8-1.16-.45-2.17-.94-3.05-1.46-.88-.52-1.62-1.13-2.21-1.82-.6-.69-1.05-1.49-1.36-2.39-.31-.91-.47-1.98-.47-3.22,0-1.69.35-3.15,1.06-4.37.71-1.22,1.66-2.22,2.84-3,1.18-.78,2.54-1.35,4.06-1.71s3.11-.55,4.76-.55c1.29,0,2.59.1,3.92.31,1.33.21,2.63.51,3.92.9v7.21c-1.14-.69-2.35-1.21-3.65-1.55s-2.57-.52-3.82-.52c-.59,0-1.14.05-1.66.16-.52.11-.98.27-1.38.47-.4.21-.71.47-.94.8-.23.33-.34.69-.34,1.11,0,.55.17,1.02.51,1.42.34.39.79.73,1.33,1.02.55.29,1.16.54,1.83.77.67.23,1.34.46,2,.69,1.19.43,2.27.91,3.24,1.42.97.51,1.79,1.11,2.49,1.8.69.69,1.22,1.5,1.59,2.42.37.93.55,2.03.55,3.31,0,1.79-.37,3.32-1.12,4.59s-1.74,2.3-2.98,3.1-2.67,1.38-4.29,1.74-3.3.55-5.04.55c-3.2,0-6.16-.51-8.89-1.54Z"/>
    <path class="cls-1" d="M552.85,946.53c-4.85,0-8.66-1.41-11.43-4.24-2.77-2.83-4.16-6.66-4.16-11.51s1.44-8.92,4.32-11.74c2.88-2.83,6.77-4.24,11.67-4.24s8.62,1.41,11.36,4.24c2.75,2.83,4.12,6.56,4.12,11.21,0,5.02-1.42,8.99-4.25,11.91s-6.71,4.37-11.63,4.37ZM553.08,921.95c-2.12,0-3.77.76-4.94,2.28-1.17,1.52-1.76,3.66-1.76,6.44,0,5.81,2.25,8.71,6.76,8.71s6.45-2.98,6.45-8.95c0-5.65-2.17-8.48-6.5-8.48Z"/>
    <path class="cls-1" d="M602.19,945.79h-8.95v-4.61h-.14c-2.22,3.56-5.18,5.35-8.89,5.35-6.74,0-10.11-4.24-10.11-12.73v-18.26h8.95v17.43c0,4.27,1.63,6.41,4.88,6.41,1.61,0,2.9-.59,3.86-1.76s1.45-2.76,1.45-4.77v-17.31h8.95v30.25Z"/>
    <path class="cls-1" d="M628.72,923.96c-1.08-.61-2.34-.92-3.78-.92-1.95,0-3.47.74-4.57,2.23-1.1,1.49-1.65,3.51-1.65,6.07v14.45h-8.98v-30.25h8.98v5.61h.11c1.42-4.1,3.98-6.14,7.67-6.14.95,0,1.68.12,2.21.35v8.6Z"/>
    <path class="cls-1" d="M654.71,944.7c-2.03,1.22-4.95,1.83-8.78,1.83-4.47,0-8.09-1.41-10.85-4.22-2.77-2.82-4.15-6.45-4.15-10.9,0-5.14,1.48-9.19,4.45-12.16,2.96-2.96,6.93-4.45,11.89-4.45,3.43,0,5.91.47,7.44,1.42v7.92c-1.87-1.46-3.97-2.19-6.28-2.19-2.58,0-4.62.78-6.12,2.35-1.51,1.57-2.26,3.73-2.26,6.49s.72,4.78,2.16,6.31c1.44,1.53,3.42,2.29,5.94,2.29,2.23,0,4.42-.73,6.56-2.19v7.5Z"/>
    <path class="cls-1" d="M686.72,933.32h-18.97c.3,4.39,2.96,6.59,7.98,6.59,3.2,0,6.01-.79,8.44-2.36v6.74c-2.69,1.5-6.18,2.25-10.48,2.25-4.7,0-8.34-1.35-10.94-4.06-2.59-2.71-3.89-6.49-3.89-11.33s1.4-9,4.2-11.94c2.8-2.93,6.25-4.4,10.34-4.4s7.52,1.31,9.84,3.93c2.32,2.62,3.48,6.17,3.48,10.67v3.93ZM678.4,927.59c0-4.33-1.69-6.5-5.06-6.5-1.44,0-2.68.62-3.74,1.86-1.05,1.24-1.69,2.79-1.92,4.64h10.71Z"/>
    <path class="cls-1" d="M690.16,944.99v-7.56c1.48.93,2.95,1.62,4.42,2.07s2.85.68,4.16.68c1.59,0,2.84-.23,3.76-.68.92-.45,1.38-1.14,1.38-2.07,0-.59-.21-1.08-.62-1.48-.42-.39-.95-.74-1.6-1.03s-1.37-.56-2.14-.8c-.78-.24-1.52-.5-2.24-.8-1.16-.45-2.17-.94-3.05-1.46-.88-.52-1.62-1.13-2.21-1.82-.6-.69-1.05-1.49-1.36-2.39-.31-.91-.47-1.98-.47-3.22,0-1.69.35-3.15,1.06-4.37.71-1.22,1.66-2.22,2.84-3,1.18-.78,2.54-1.35,4.06-1.71s3.11-.55,4.76-.55c1.29,0,2.59.1,3.92.31,1.33.21,2.63.51,3.92.9v7.21c-1.14-.69-2.35-1.21-3.65-1.55s-2.57-.52-3.82-.52c-.59,0-1.14.05-1.66.16-.52.11-.98.27-1.38.47-.4.21-.71.47-.94.8-.23.33-.34.69-.34,1.11,0,.55.17,1.02.51,1.42.34.39.79.73,1.33,1.02.55.29,1.16.54,1.83.77.67.23,1.34.46,2,.69,1.19.43,2.27.91,3.24,1.42.97.51,1.79,1.11,2.49,1.8.69.69,1.22,1.5,1.59,2.42.37.93.55,2.03.55,3.31,0,1.79-.37,3.32-1.12,4.59s-1.74,2.3-2.98,3.1-2.67,1.38-4.29,1.74-3.3.55-5.04.55c-3.2,0-6.16-.51-8.89-1.54Z"/>
    <path class="cls-1" d="M743.64,931.2v14.59h-9.17v-42.37h14.37c10.26,0,15.39,4.5,15.39,13.5,0,4.25-1.47,7.7-4.42,10.33-2.95,2.63-6.88,3.94-11.8,3.94h-4.37ZM743.64,910.75v13.21h3.61c4.89,0,7.33-2.23,7.33-6.68s-2.44-6.53-7.33-6.53h-3.61Z"/>
    <path class="cls-1" d="M778.01,935.54c0,1.28.29,2.25.88,2.91.59.66,1.37.99,2.36.99.49,0,.98-.05,1.48-.15.49-.1.98-.2,1.48-.29v6.56c-1.08.3-2.22.54-3.42.72s-2.46.28-3.76.28c-1.19,0-2.28-.21-3.25-.62-.98-.41-1.81-1.01-2.5-1.79-.69-.78-1.23-1.72-1.61-2.82-.38-1.1-.57-2.34-.57-3.72v-36.6h8.92v34.54Z"/>
    <path class="cls-1" d="M812.18,945.79h-8.49v-4.34h-.11c-1.95,3.39-4.84,5.08-8.66,5.08-2.82,0-5.04-.83-6.66-2.5-1.62-1.66-2.43-3.88-2.43-6.66,0-5.87,3.34-9.26,10.03-10.16l7.9-1.09c0-3.31-1.72-4.96-5.17-4.96s-6.76,1.07-9.88,3.22v-7.03c1.25-.67,2.96-1.26,5.13-1.77,2.17-.51,4.14-.77,5.92-.77,8.29,0,12.44,4.3,12.44,12.91v18.08ZM803.74,933.5v-2.04l-5.28.71c-2.92.39-4.37,1.76-4.37,4.11,0,1.06.35,1.93,1.06,2.61s1.67,1.02,2.88,1.02c1.68,0,3.06-.61,4.12-1.82,1.06-1.21,1.59-2.74,1.59-4.59Z"/>
    <path class="cls-1" d="M847.37,945.79h-8.95v-16.81c0-4.69-1.61-7.03-4.83-7.03-1.55,0-2.83.62-3.83,1.86-1,1.24-1.51,2.82-1.51,4.73v17.25h-8.98v-30.25h8.98v4.79h.11c2.14-3.68,5.25-5.52,9.34-5.52,6.44,0,9.66,4.16,9.66,12.47v18.52Z"/>
    <path class="cls-1" d="M882.56,945.79h-8.95v-16.81c0-4.69-1.61-7.03-4.83-7.03-1.55,0-2.83.62-3.83,1.86-1,1.24-1.51,2.82-1.51,4.73v17.25h-8.98v-30.25h8.98v4.79h.11c2.14-3.68,5.25-5.52,9.34-5.52,6.44,0,9.66,4.16,9.66,12.47v18.52Z"/>
    <path class="cls-1" d="M894.01,910.75c-1.51,0-2.75-.47-3.72-1.4-.97-.93-1.45-2.08-1.45-3.44s.48-2.54,1.45-3.43c.97-.89,2.21-1.33,3.72-1.33s2.78.44,3.74,1.33c.96.89,1.43,2.03,1.43,3.43s-.48,2.58-1.43,3.49-2.2,1.36-3.74,1.36ZM898.35,935.54c0,1.28.29,2.25.88,2.91.59.66,1.37.99,2.36.99.49,0,.98-.05,1.48-.15.49-.1.98-.2,1.48-.29v6.56c-1.08.3-2.22.54-3.42.72s-2.46.28-3.76.28c-1.19,0-2.28-.21-3.25-.62-.98-.41-1.81-1.01-2.5-1.79-.69-.78-1.23-1.72-1.61-2.82-.38-1.1-.57-2.34-.57-3.72v-22.07h8.92v20Z"/>
    <path class="cls-1" d="M936.41,945.79h-8.95v-16.81c0-4.69-1.61-7.03-4.83-7.03-1.55,0-2.83.62-3.83,1.86-1,1.24-1.51,2.82-1.51,4.73v17.25h-8.98v-30.25h8.98v4.79h.11c2.14-3.68,5.25-5.52,9.34-5.52,6.44,0,9.66,4.16,9.66,12.47v18.52Z"/>
    <path class="cls-1" d="M972.03,942.33c0,5.61-1.56,9.96-4.69,13.04-3.12,3.08-7.65,4.62-13.58,4.62-3.92,0-7.03-.58-9.32-1.74v-7.86c2.99,1.81,6.01,2.72,9.06,2.72s5.38-.83,7.04-2.5c1.67-1.66,2.5-3.92,2.5-6.78v-2.39h-.11c-2.04,3.39-5.07,5.08-9.06,5.08-3.71,0-6.66-1.36-8.83-4.08-2.18-2.72-3.27-6.36-3.27-10.93,0-5.12,1.21-9.19,3.64-12.2,2.42-3.01,5.61-4.52,9.57-4.52,3.54,0,6.19,1.42,7.95,4.25h.11v-3.52h8.98v26.8ZM963.17,931.26v-2.39c0-1.91-.54-3.54-1.63-4.89-1.09-1.35-2.5-2.02-4.25-2.02-1.99,0-3.55.81-4.69,2.42-1.14,1.62-1.7,3.89-1.7,6.82,0,2.52.54,4.52,1.62,5.98,1.08,1.47,2.56,2.2,4.43,2.2s3.36-.74,4.5-2.23c1.15-1.49,1.72-3.45,1.72-5.89Z"/>
  </g>
</svg>