<?xml version="1.0" encoding="UTF-8"?>
<svg id="Layer_1" data-name="Layer 1" xmlns="http://www.w3.org/2000/svg" xmlns:xlink="http://www.w3.org/1999/xlink" viewBox="0 0 874.57 1023.32">
  <defs>
    <style>
      .cls-1 {
        fill: #b7cc33;
      }

      .cls-2 {
        font-family: MicrosoftNewTaiLue-Bold, 'Microsoft New Tai Lue';
        font-size: 61.7px;
        font-weight: 700;
      }

      .cls-2, .cls-3 {
        fill: #143745;
      }

      .cls-4 {
        fill: #143744;
      }

      .cls-5 {
        fill: url(#linear-gradient);
      }

      .cls-6 {
        fill: #fab71b;
      }
    </style>
    <linearGradient id="linear-gradient" x1="306.93" y1="91.75" x2="568.91" y2="91.75" gradientUnits="userSpaceOnUse">
      <stop offset=".16" stop-color="#faf6ca"/>
      <stop offset=".81" stop-color="#fcd030"/>
      <stop offset=".89" stop-color="#fbcb2c"/>
      <stop offset=".97" stop-color="#fabe21"/>
      <stop offset="1" stop-color="#fab71b"/>
    </linearGradient>
  </defs>
  <g>
    <path class="cls-4" d="M562.92,185.32l-.3,36.38-101.52-1v.05l-17.3-.31c-15.25-.3-27.86,11.62-28.06,26.53l-.47,28.52-55.22-.54.47-28.9c.67-44.79,38.46-80.48,84.12-79.72l16.32.3.59.02,85.18.84c9.03.09,16.27,8.07,16.19,17.84Z"/>
    <path class="cls-1" d="M353.39,226.5c-14.63.13-29.26.27-43.89.4-.86-11.88,0-21.61,1-28.37,1.6-10.89,2.65-17.47,7.75-23.28,4.87-5.56,11.22-7.89,12.91-8.46,2.96-1,6.11-1.53,9.37-1.53,12.22,0,22.3-.28,31.48.08,3.08.12,7.92.3,13.94.5-6.01,5.31-15.11,14.7-22.44,29.11-6.29,12.36-8.92,23.8-10.12,31.56Z"/>
    <path class="cls-1" d="M516.69,233.31l-.08,29.27c-.08,35.69-23.18,66.02-55.21,77.35-8.7,3.09-18.1,4.77-27.87,4.77l-12.79-.09h-4.12v.05H89.12c-2.56,0-5.06-.26-7.48-.75-15.86-3.25-27.74-16.71-27.74-32.8v-21.41h382.6c-.94.09-1.91.12-2.85.12l-17.28-.03v.09l17.28.03c1.19,0,2.36-.03,3.5-.21,5.9-.72,11.2-3.29,15.34-7.17,5.43-4.96,8.87-12.13,8.87-20.04l.12-28.9,55.21-.28Z"/>
    <path class="cls-1" d="M452.5,282.53c-4.14,3.88-9.44,6.45-15.34,7.17-1.14.17-2.31.21-3.5.21l-17.28-.03v-.09l17.28.03c.94,0,1.91-.03,2.85-.12,6.13-.58,11.7-3.23,15.99-7.17Z"/>
    <path class="cls-1" d="M437.16,289.7c-1.14.17-2.31.21-3.5.21l-17.28-.03v-.09l17.28.03c.94,0,1.91-.03,2.85-.12h.65Z"/>
    <path class="cls-3" d="M484.55,342.38h306.1c15.34,0,27.78-12.83,27.78-28.67v-29.25c-97.44.04-194.88.08-292.32.12-.26,5.91-1.66,19.75-10.92,33.62-10.74,16.09-25.4,22.26-30.64,24.18Z"/>
    <path class="cls-3" d="M560.61,375h298.07v53.26c0,3.38-2.74,6.13-6.13,6.13h-298.07v-53.26c0-3.38,2.74-6.13,6.13-6.13Z"/>
    <path class="cls-1" d="M15.88,372.91h298.07c3.38,0,6.13,2.74,6.13,6.13v56.38H22.01c-3.38,0-6.13-2.74-6.13-6.13v-56.38h0Z"/>
    <path class="cls-3" d="M561.09,470.84h212.88v53.26c0,3.38-2.74,6.13-6.13,6.13h-212.88v-53.26c0-3.38,2.74-6.13,6.13-6.13Z"/>
    <path class="cls-1" d="M103.48,471.37h209.03c3.38,0,6.13,2.74,6.13,6.13v53.78H109.61c-3.38,0-6.13-2.74-6.13-6.13v-53.78h0Z"/>
    <path class="cls-3" d="M561.33,568.77h142.36v53.26c0,3.38-2.74,6.13-6.13,6.13h-142.36v-53.26c0-3.38,2.74-6.13,6.13-6.13Z"/>
    <path class="cls-1" d="M171.11,569.56h147.18c3.38,0,6.13,2.74,6.13,6.13v54.56h-147.18c-3.38,0-6.13-2.74-6.13-6.13v-54.56h0Z"/>
    <path class="cls-5" d="M566.66,182.41c-.64-2.83-2.78-10.61-9.59-16.28-3.22-2.68-6.44-4.02-8.73-4.73-126.87-2.79-219.81-1.51-226.36,3.15-4.5,3.2-7.59,7.42-7.59,7.42-2.61,3.57-4.02,7.04-4.78,9.26-2.45-14.41-8.13-57.74,11.56-101.51C354.47,5.68,428.47,1.4,433.78,1.15c8.78-.29,73.26-1.46,111.67,61.98,31.18,51.51,22.88,108.76,21.21,119.28Z"/>
    <path class="cls-6" d="M309.52,179.48c-7.06-33.19-3.94-68.76,10.41-99.65,10.65-21.07,26.05-39.77,44.66-54.29,44.22-34.44,102.21-33.73,146.47.25,29.76,22.01,50.12,55.18,56.13,91.67,3.53,20.57,3.4,41.84-.83,62.28,5.27-30.73,2.34-62.88-9.47-91.74-3.48-8.34-7.75-16.39-12.68-23.96-9.47-13.83-21.4-26-34.76-36.12-29.12-22.2-66.58-30.77-102.13-21-37.53,10.49-67.55,39.98-85.61,73.77-14.58,30.52-18.25,65.59-12.2,98.8h0Z"/>
    <polygon class="cls-3" points="251.53 795.53 221.58 795.53 201.94 739.42 190.07 762.21 190.07 795.53 162.77 795.53 162.77 653.82 190.07 653.82 190.07 716.32 215.63 653.82 246.45 653.82 216.47 711.46 251.53 795.53"/>
    <path class="cls-3" d="M308.68,653.82h-19.17l-38.21,141.71h27.1l4.91-22.04h31.58l4.91,22.04h27.08l-38.2-141.71ZM288.35,750.88l10.74-48.23,10.74,48.23h-21.49Z"/>
    <path class="cls-3" d="M366.37,792.84c-6.02-2.76-10.63-6.75-13.82-11.99-3.19-5.23-4.79-11.51-4.79-18.86v-7.6l27.2-.19v7.6c0,3.58,1.14,6.38,3.41,8.43,2.27,2.05,5.43,3.07,9.47,3.07s7.03-1.01,9.2-3.02c2.16-2.02,3.25-4.78,3.25-8.29v-12.38c0-2.6-.83-4.86-2.48-6.78-1.65-1.91-3.78-3.57-6.39-4.97-2.61-1.39-6.15-3.07-10.63-5.02-.3-.13-.57-.26-.83-.39-.26-.13-.53-.26-.83-.39l-1.43-.58c-5.95-2.66-11.01-5.44-15.2-8.33-4.18-2.89-7.67-6.71-10.46-11.45-2.79-4.74-4.18-10.59-4.18-17.54v-7.31c0-7.21,1.56-13.4,4.68-18.56,3.12-5.17,7.65-9.12,13.6-11.85,5.95-2.73,13.1-4.09,21.47-4.09s15.16,1.36,21.03,4.09c5.87,2.73,10.35,6.71,13.43,11.94,3.08,5.23,4.62,11.52,4.62,18.86v7.99l-27.2.29v-8.09c0-3.64-1.05-6.48-3.14-8.53-2.09-2.05-5.01-3.07-8.75-3.07-3.96,0-7.03.92-9.2,2.78-2.17,1.85-3.25,4.4-3.25,7.65v9.45c0,2.66.79,4.97,2.37,6.92,1.58,1.95,3.56,3.59,5.95,4.92,2.38,1.33,5.71,2.94,9.97,4.82.81.33,1.63.68,2.48,1.08.84.39,1.71.78,2.59,1.17.15.07.28.13.39.2s.24.13.39.19c6.09,2.86,11.01,5.51,14.76,7.94s6.94,5.86,9.58,10.28c2.64,4.42,3.96,10.07,3.96,16.96v11.79c0,7.35-1.56,13.63-4.68,18.86-3.12,5.23-7.65,9.23-13.6,11.99-5.95,2.76-13.07,4.15-21.36,4.15s-15.56-1.38-21.58-4.15Z"/>
    <path class="cls-3" d="M460.52,792.75c-5.73-2.83-10.11-6.94-13.16-12.33-3.05-5.39-4.57-11.89-4.57-19.49v-72.51c0-7.6,1.52-14.1,4.57-19.49,3.04-5.39,7.43-9.5,13.16-12.33,5.73-2.82,12.63-4.24,20.7-4.24s15,1.41,20.76,4.24c5.77,2.83,10.15,6.95,13.16,12.38,3.01,5.42,4.52,11.94,4.52,19.54v11.4h-27.64v-11.4c0-2.41-.4-4.48-1.21-6.24-.81-1.75-2.04-3.1-3.69-4.04-1.65-.94-3.62-1.42-5.89-1.42s-4.11.46-5.73,1.36c-1.61.91-2.85,2.25-3.69,4-.85,1.75-1.26,3.83-1.26,6.24v72.51c0,2.41.42,4.47,1.26,6.19.84,1.72,2.07,3.04,3.69,3.95,1.62.91,3.53,1.36,5.73,1.36,2.35,0,4.33-.45,5.95-1.36,1.61-.91,2.83-2.22,3.63-3.95.81-1.72,1.21-3.82,1.21-6.29v-11.4h27.64v11.4c0,7.6-1.51,14.12-4.52,19.54-3.01,5.43-7.39,9.55-13.16,12.38-5.76,2.82-12.68,4.24-20.76,4.24s-14.97-1.42-20.7-4.24Z"/>
    <path class="cls-1" d="M550.38,792.75c-5.73-2.83-10.11-6.94-13.16-12.33-3.04-5.39-4.57-11.89-4.57-19.49v-72.51c0-7.6,1.52-14.1,4.57-19.49,3.05-5.39,7.43-9.5,13.16-12.33,5.73-2.82,12.63-4.24,20.7-4.24s15,1.41,20.76,4.24c5.77,2.83,10.15,6.95,13.16,12.38,3.01,5.42,4.52,11.94,4.52,19.54v11.4h-27.64v-11.4c0-2.41-.4-4.48-1.21-6.24-.81-1.75-2.04-3.1-3.69-4.04-1.65-.94-3.62-1.42-5.89-1.42s-4.11.46-5.73,1.36c-1.61.91-2.85,2.25-3.69,4-.85,1.75-1.26,3.83-1.26,6.24v72.51c0,2.41.42,4.47,1.26,6.19.84,1.72,2.07,3.04,3.69,3.95,1.62.91,3.53,1.36,5.73,1.36,2.35,0,4.33-.45,5.95-1.36,1.61-.91,2.83-2.22,3.63-3.95.81-1.72,1.21-3.82,1.21-6.29v-11.4h27.64v11.4c0,7.6-1.51,14.12-4.52,19.54-3.01,5.43-7.39,9.55-13.16,12.38-5.76,2.82-12.68,4.24-20.76,4.24s-14.98-1.42-20.7-4.24Z"/>
    <path class="cls-1" d="M641.39,793.04c-6.13-2.63-10.81-6.43-14.04-11.4-3.23-4.97-4.84-10.96-4.84-17.98v-77.97c0-7.02,1.62-13.02,4.84-18.03,3.23-5,7.91-8.81,14.04-11.4,6.13-2.6,13.49-3.9,22.08-3.9s15.95,1.3,22.08,3.9c6.13,2.6,10.81,6.4,14.04,11.4,3.23,5,4.84,11.01,4.84,18.03v77.97c0,7.02-1.62,13.01-4.84,17.98-3.23,4.97-7.91,8.77-14.04,11.4-6.13,2.63-13.49,3.95-22.08,3.95s-15.95-1.32-22.08-3.95ZM670.69,771.36c2.02-.98,3.54-2.37,4.57-4.19,1.03-1.82,1.54-4.02,1.54-6.62v-71.93c0-2.53-.51-4.71-1.54-6.53-1.03-1.82-2.55-3.22-4.57-4.19-2.02-.98-4.43-1.46-7.21-1.46s-5.18.49-7.16,1.46c-1.98.97-3.49,2.37-4.51,4.19-1.03,1.82-1.54,4-1.54,6.53v71.93c0,2.6.51,4.81,1.54,6.62,1.03,1.82,2.53,3.22,4.51,4.19,1.98.97,4.37,1.46,7.16,1.46s5.2-.49,7.21-1.46Z"/>
  </g>
  <g>
    <path class="cls-3" d="M104.79,911.61h-.71c-11.97-.18-18.14-9.28-18.52-27.31v-12.36h9.54v13.16c.2,9.39,4.03,14.46,11.48,15.21h13.16c-1.56-4.01-2.35-7.76-2.35-11.24,0-4.23.83-8.09,2.5-11.57,2.28-4.28,5.1-7.16,8.47-8.66,1.94-.88,4.56-1.39,7.85-1.52,3.47-.09,6.82,1.01,10.05,3.31,4.59,3.22,7.4,8.22,8.42,15.01.24,1.59.36,3.13.36,4.63,0,5.29-1.39,9.96-4.18,14.02-1.67,2.47-3.49,4.3-5.46,5.49-2.18,1.37-5.31,2.05-9.39,2.05h-31.22v-.2ZM124.58,849.59h8.52v9.06h-8.52v-9.06ZM130.04,881.2c-1.7,2.56-2.55,5.62-2.55,9.19,0,.93.07,1.85.2,2.78.85,5.73,3.52,8.6,8.01,8.6.65,0,1.24-.07,1.79-.2,1.33-.31,2.63-1.32,3.93-3.04,1.8-2.34,2.7-5.36,2.7-9.06,0-.53-.02-1.1-.05-1.72-.85-6.48-3.54-9.85-8.06-10.12-2.28-.18-4.27,1.02-5.97,3.57ZM138.76,849.59h8.52v9.06h-8.52v-9.06Z"/>
    <path class="cls-3" d="M216.14,856.8v9.07h8.52v-9.07h-8.52ZM223.08,844.7v9.07h8.47v-9.07h-8.47ZM230.32,856.8v9.07h8.51v-9.07h-8.51Z"/>
    <path class="cls-3" d="M280,849.46v48.34c0,5.68-2.35,9.9-7.04,12.63-1.83.83-3.9,1.25-6.21,1.25h-24.74v-.06c-.14.05-.3.06-.46.06h-18.71v-.06c-.17.05-.37.06-.56.06h-19.23v-.2c-.44.09-.89.16-1.32.2h-20.71c-.68,4.06-2.31,7.62-4.89,10.71-3.48,3.62-8.44,5.25-14.91,4.9l.11-8.73c.44.08.86.12,1.27.12,2.69,0,4.99-1.25,6.89-3.76,1.35-1.95,2.04-4.87,2.04-8.81v-34.11h9.79v28.37h16.06c3.27.12,4.97-1.65,5.1-5.36v-23.08h10.05v25.92c0,.89-.03,1.72-.1,2.51h5.51c3.27.12,4.96-1.65,5.1-5.36v-23.08h10v25.92c0,.89-.04,1.72-.11,2.51h4.28c3.27.12,4.97-1.65,5.1-5.36v-23.08h10.06v25.92c0,.89-.04,1.72-.11,2.51h4.24v-.06h4.28c.68.08,1.63.06,2.86-.08,3.37-.44,5.27-2.95,5.71-7.53v-43.25h10.67Z"/>
    <path class="cls-3" d="M286.53,849.26l10.81-.07v62.41l-10.92.13.1-62.48Z"/>
    <path class="cls-3" d="M334.22,879.55c.75-.09,1.5-.11,2.24-.07l13.42.07c.03-2.95-.22-5.46-.77-7.54-.51-2.11-1.72-4.27-3.62-6.48-2.65-2.82-5.81-4.25-9.49-4.3-4.97.62-8.43,3.15-10.41,7.6l-6.07-6.88c.34-.62.65-1.21.92-1.78.61-1.01,1.53-2.16,2.75-3.44,3.33-3.57,7.26-5.55,11.78-5.95,4.45-.22,8.59.82,12.39,3.11,7.28,5.6,10.98,14.15,11.12,25.65l-.05,11.37-11.78-.07h-8.57c-3.2.04-5.61.64-7.24,1.79-1.53,1.15-2.65,2.53-3.37,4.16-1.12,2.47-1.68,5.09-1.68,7.87.24,2.82,1,5.33,2.3,7.54,1.56,1.94,3.71,3.31,6.43,4.1,2.28.31,4.25.44,5.92.4h8.21v10.51l-11.32-.07c-3.94-.27-7.11-.95-9.49-2.05-3.06-1.19-5.47-3.53-7.24-7.01-1.87-2.82-3.06-7.21-3.57-13.16.27-7.45,1.7-12.96,4.28-16.53,1.84-3.17,3.86-5.4,6.07-6.68,1.46-.79,2.92-1.37,4.39-1.72l.36-.46h2.09Z"/>
    <path class="cls-3" d="M411.2,849.6v9.06h8.51v-9.06h-8.51Z"/>
    <path class="cls-3" d="M486.48,875.52c-5.14-5.78-11.19-8.77-18.16-8.99-1.3-.22-2.58-.36-3.87-.41l8.26-16.58h-9.99l-14.95,27.9,10.76-.08c7.79-.27,13.55.8,17.29,3.19,5.41,4.09,7.76,10.68,7.04,19.77h-45.5v.06h-5.35c1.32-3.09,1.99-6.46,1.99-10.12,0-1.5-.13-3.04-.35-4.62-1.03-6.79-3.83-11.8-8.43-15.02-3.23-2.28-6.58-3.39-10.05-3.29-3.3.12-5.92.64-7.85,1.51-3.37,1.5-6.2,4.39-8.47,8.67-1.68,3.48-2.51,7.34-2.51,11.57,0,3.48.79,7.23,2.35,11.24h-15.77c-4.62-.67-6.83-4-6.64-9.99v-41.25h-10.5v46.42c.13,3.12.62,5.81,1.48,8.06,2,5.42,5.52,8.13,10.55,8.13h8.78v.14h28.36c1.01,0,1.99-.05,2.9-.14h74.72l.06-12.82v-.86c0-8.77-2.06-16.27-6.17-22.48ZM420.37,898.51c-1.28,1.72-2.59,2.75-3.92,3.04-.55.14-1.14.2-1.79.2-4.49,0-7.16-2.87-8.02-8.6-.13-.92-.2-1.84-.2-2.76,0-3.58.85-6.64,2.55-9.2,1.7-2.56,3.69-3.75,5.97-3.58,4.51.27,7.2,3.64,8.06,10.12.03.62.04,1.19.04,1.72,0,3.7-.9,6.73-2.71,9.06Z"/>
    <path class="cls-3" d="M543.6,843.51v9.06h8.52v-9.06h-8.52ZM529.43,843.51v9.06h8.52v-9.06h-8.52Z"/>
    <path class="cls-3" d="M578.44,893.1c-.34-4.28.45-7.62,2.4-10.04,1.63-2.03,3.48-3.08,5.57-3.12,1.59-.17,3.11.2,4.54,1.12,2.24,1.73,3.99,3.98,5.26,6.74l7.19-5.42c-.68-2.47-2.21-5.06-4.59-7.79-1.39-1.86-2.92-3.17-4.57-3.95-1.65-.77-3.71-1.23-6.19-1.42-4.64-.22-8.37.87-11.23,3.25-3.1,2.42-5.27,6.46-6.52,12.1-.52,3.04-.62,6.01-.31,8.93.14,2.15.69,4.4,1.68,6.73l-7.44.08v.06h-2.49c-3.58-.27-5.57-3.22-5.97-8.85-.07-4.23-.06-6.35.06-6.35l-.11-26.9h-15.3c-5.1-.05-9.16.81-12.19,2.58-2.72,1.94-4.75,3.75-6.07,5.42-2.21,2.73-3.79,6.2-4.73,10.38-.52,2.11-.77,4.42-.77,6.93,0,3.98.62,7.57,1.85,10.79,1.35,3.75,3.38,6.4,6.09,7.99,2.71,1.59,5.85,2.37,9.41,2.37,3.37,0,5.82-.59,7.35-1.78.85-.56,2.2-1.61,4.07-3.11.96,3.09,2.86,5.93,5.72,8.52,2.68,2.22,6.02,3.31,9.99,3.31h42.19v-11.37h-21.68c-1.93-2.42-2.99-4.82-3.16-7.21ZM543.5,889.86c-1.47,3.03-3.54,4.79-6.23,5.28-1.56.27-3.14-.33-4.73-1.78-1.49-1.33-2.68-3.01-3.52-5.09-.72-1.86-1.07-4.06-1.07-6.6,0-2.83.44-5.45,1.32-7.87,1.23-3.45,3.79-5.7,7.71-6.74,1.9-.44,4.54-.58,7.9-.41.07,9.35.1,14.54.1,15.53,0,3.04-.49,5.6-1.48,7.68Z"/>
    <path class="cls-3" d="M711.52,917.95v9.07h8.51v-9.07h-8.51Z"/>
    <path class="cls-3" d="M785.38,886.62c-3.95-5.11-8.41-7.67-13.41-7.67h-.51c-5.96.22-10.34,2.48-13.16,6.81-1.34,1.98-2.37,4.37-3.11,7.14-.69,2.56-1.03,5.06-1.03,7.48h-6.33v-.14l-7.44.08c-1.44-13.44-5.82-22.59-13.16-27.45-4.62-3.12-9.52-4.37-14.7-3.76-5.1,1.01-9.06,3.31-11.88,6.87-1.16,1.37-2.38,3.08-3.68,5.09l7.3,8.01c2.51-4.93,6.26-7.59,11.22-7.93,4.21.48,7.43,2.14,9.64,4.95,1.8,2.22,2.96,4.37,3.48,6.48.63,1.98,1.03,4.56,1.17,7.74h-36.83v.06h-3.68c-.23-5.9-1.44-10.49-3.62-13.75-3.95-5.11-8.41-7.67-13.41-7.67h-.51c-5.95.22-10.34,2.48-13.16,6.81-1.32,1.98-2.37,4.37-3.11,7.14-.68,2.56-1.01,5.06-1.01,7.48h-4.13v-.06h-6.17l.04-6.68c.04-.39.06-.8.06-1.19-.24-5.9-1.45-10.49-3.62-13.75-3.95-5.11-8.41-7.67-13.41-7.67h-.51c-5.96.22-10.34,2.48-13.16,6.81-1.34,1.98-2.37,4.36-3.11,7.14-.69,2.56-1.03,5.06-1.03,7.48.28,5.25,1.39,9.32,3.37,12.22,3.13,4.72,7.48,7.07,13.06,7.07,3.03,0,5.76-.64,8.21-1.9-.31,2.11-.9,3.81-1.79,5.09-1.9,2.51-4.2,3.76-6.89,3.76-.39,0-.83-.05-1.27-.12l-.1,8.73h1.68c5.65,0,10.05-1.64,13.22-4.9,2.55-3.09,4.18-6.65,4.89-10.71h13.32c.45-.09.8.09,1.07.53,2.89,4.98,7.13,7.48,12.71,7.48,5.97,0,10.89-2.5,14.74-7.48.27-.36.76-.53,1.48-.53h69.73c.44-.09.79.09,1.07.53,2.89,4.98,7.12,7.48,12.7,7.48,5.99,0,10.89-2.5,14.74-7.48,2.28-3.04,3.51-6.98,3.68-11.83-.24-5.9-1.45-10.49-3.62-13.75ZM632.41,898.78c-.99,1.59-1.9,2.56-2.75,2.92-.72.3-1.62.45-2.71.45-3.47,0-5.82-1.89-7.04-5.68-.58-1.84-.86-3.68-.86-5.48,0-2.12.35-4.06,1.07-5.82.63-1.55,1.44-2.72,2.4-3.5,1.42-1.23,2.71-1.86,3.82-1.86.34-.09.66-.14.97-.14,3.51.09,5.75,2.75,6.73,7.95.27,1.28.41,2.51.41,3.7,0,2.83-.68,5.31-2.04,7.46ZM677.45,906.73c-.99,1.58-1.92,2.54-2.76,2.9-.72.31-1.62.45-2.71.45-3.47,0-5.81-1.89-7.03-5.68-.58-1.84-.87-3.67-.87-5.48,0-2.12.35-4.06,1.07-5.82.65-1.55,1.45-2.7,2.4-3.5,1.44-1.23,2.71-1.86,3.83-1.86.34-.08.66-.12.97-.12,3.16,0,5.4,2.64,6.72,7.93.28,1.28.41,2.51.41,3.7,0,2.83-.68,5.31-2.03,7.48ZM777.17,906.73c-.99,1.58-1.9,2.54-2.76,2.9-.7.31-1.61.45-2.69.45-3.48,0-5.82-1.89-7.04-5.68-.58-1.84-.86-3.67-.86-5.48,0-2.12.35-4.06,1.07-5.82.63-1.55,1.44-2.7,2.4-3.5,1.42-1.23,2.71-1.86,3.82-1.86.34-.08.66-.12.97-.12,3.16,0,5.41,2.64,6.74,7.93.27,1.28.41,2.51.41,3.7,0,2.83-.69,5.31-2.04,7.48Z"/>
  </g>
  <text class="cls-2" transform="translate(0 999.82) scale(.89 1)"><tspan x="0" y="0">Keffah Alsharq Contracting Group</tspan></text>
</svg>