<?xml version="1.0" encoding="UTF-8"?>
<svg xmlns="http://www.w3.org/2000/svg" xmlns:xlink="http://www.w3.org/1999/xlink" viewBox="0 0 200 200">
  <defs>
    <style>
      .cls-1 {
        fill: url(#radial-gradient);
        mix-blend-mode: multiply;
      }

      .cls-2 {
        fill: #f89b2d;
      }

      .cls-3 {
        isolation: isolate;
      }

      .cls-4 {
        fill: #143745;
      }

      .cls-5 {
        fill: #f8b864;
      }

      .cls-6 {
        fill: #b7cc34;
      }
    </style>
    <radialGradient id="radial-gradient" cx="109.33" cy="790.35" fx="109.33" fy="790.35" r="106.16" gradientTransform="translate(-19.6 104.5) rotate(-.53) scale(1.09 .11) skewX(-.04)" gradientUnits="userSpaceOnUse">
      <stop offset="0" stop-color="#ccc"/>
      <stop offset=".2" stop-color="#ccc" stop-opacity=".76"/>
      <stop offset=".67" stop-color="#ccc" stop-opacity=".22"/>
      <stop offset=".88" stop-color="#ccc" stop-opacity="0"/>
    </radialGradient>
  </defs>
  <g class="cls-3">
    <g id="Layer_1" data-name="Layer 1">
      <path class="cls-2" d="M173.44,95.27l-24.32,24.7-31.9-32.36c-2.71-2.75-7.1-2.75-9.81,0l-7.41,7.52-7.28,7.39c-6.8,6.9-17.76,6.9-24.53,0l19.57-19.85,12.31-12.46v-.04h24.53l12.04-12.21,36.81,37.3Z"/>
      <g>
        <path class="cls-2" d="M99.97,144.75c-.28.38-.62.8-.97,1.14l-4.44,4.54c-.1.07-.21.17-.31.28s-.24.21-.35.31l-6.14,6.24-1.21,1.21c-.1.1-.21.24-.28.38-.07.03-.1.07-.14.1-3.4,2.98-8.57,2.84-11.83-.45-3.4-3.43-3.4-8.98,0-12.45l1.21-1.21,11.24-11.38.31-.31c.28-.21.55-.45.83-.66,1.49-1.08,3.26-1.63,5-1.63,2.22,0,4.44.87,6.11,2.6.17.17.35.35.49.52.14.17.28.42.42.62,2.19,3.02,2.19,7.11.07,10.13Z"/>
        <path class="cls-2" d="M106.14,163.45l-6.14,6.24-1.21,1.21c-3.37,3.47-8.88,3.47-12.25,0-3.26-3.26-3.4-8.5-.42-11.93.03-.03.07-.07.14-.1l1.53-1.56,6.45-6.59c.1-.1.21-.21.31-.28,1.6-1.32,3.54-1.98,5.48-1.98,2.22,0,4.44.87,6.11,2.57,3.4,3.43,3.4,9.02,0,12.42Z"/>
        <path class="cls-2" d="M87.2,132.99c-.03.07-.1.1-.14.17l-.31.31-11.24,11.38-1.21,1.21c-3.4,3.47-8.88,3.47-12.28,0-3.36-3.4-3.36-8.98,0-12.42l1.21-1.18.03-.03,6.14-6.28,5.06-5.13c1.7-1.73,3.92-2.6,6.14-2.6,2.08,0,4.16.76,5.83,2.32.1.07.21.17.31.28.21.21.42.42.59.66,2.64,3.3,2.57,8.08-.14,11.31Z"/>
        <path class="cls-2" d="M69.4,126.16l-6.14,6.28-.03.03-1.21,1.18c-3.36,3.43-8.85,3.43-12.25,0-3.4-3.43-3.4-8.98,0-12.45l1.21-1.21,6.14-6.24c1.7-1.73,3.92-2.57,6.14-2.57.69,0,1.39.07,2.05.24.66.14,1.32.38,1.91.69.8.45,1.53.97,2.19,1.63,3.37,3.47,3.37,9.02,0,12.42Z"/>
      </g>
      <polygon class="cls-4" points="197.13 84.29 179.89 101.81 173.44 95.27 136.63 57.97 131.05 52.31 148.32 34.78 197.13 84.29"/>
      <polygon class="cls-6" points="68.95 52.31 63.37 57.97 26.6 95.3 20.14 101.81 2.87 84.29 51.71 34.78 68.95 52.31"/>
      <path class="cls-5" d="M150.34,133.65c-3.4,3.43-8.88,3.43-12.25,0,2.91,3.26,3.37,8.33.59,11.79-3.33,4.06-9.26,4.3-12.87.62,3.4,3.47,3.4,9.02,0,12.45-3.4,3.43-8.88,3.43-12.28,0,3.4,3.43,3.4,9.02,0,12.42-3.37,3.47-8.88,3.47-12.25,0l-1.25-1.21-.03-.03,6.14-6.24c3.4-3.4,3.4-8.98,0-12.42-1.67-1.7-3.89-2.57-6.11-2.57-1.94,0-3.89.66-5.48,1.98l4.44-4.54c.35-.35.69-.76.97-1.14,2.12-3.02,2.12-7.11-.07-10.13-.14-.21-.28-.45-.42-.62-.14-.17-.31-.35-.49-.52-1.67-1.73-3.89-2.6-6.11-2.6-1.73,0-3.5.55-5,1.63l-.1-.1-.59.59c2.71-3.23,2.78-8.01.14-11.31-.17-.24-.38-.45-.59-.66-.1-.1-.21-.21-.31-.28-1.67-1.56-3.75-2.32-5.83-2.32-2.22,0-4.44.87-6.14,2.6l-5.06,5.13c3.37-3.4,3.37-8.95,0-12.42-.66-.66-1.39-1.18-2.19-1.63-.59-.31-1.25-.55-1.91-.69-.66-.17-1.35-.24-2.05-.24-2.22,0-4.44.83-6.14,2.57l-6.14,6.24-.03.03-24.35-24.7,36.77-37.36,12.04,12.21h24.63l-12.28,12.49h-.03l-19.53,19.88c6.76,6.87,17.73,6.87,24.53,0l7.28-7.39,7.42-7.53c2.71-2.74,7.08-2.74,9.78,0l7.39,7.49,25.74,26.09c3.4,3.47,3.4,9.02,0,12.45Z"/>
      <circle class="cls-4" cx="100.43" cy="36.76" r="31.22"/>
      <path class="cls-6" d="M92.92,54.11c-.57,0-1.14-.22-1.57-.65l-11.08-11.08c-.87-.87-.87-2.27,0-3.13.87-.87,2.27-.87,3.13,0l9.69,9.69,29.48-23.17c.97-.76,2.36-.59,3.11.37.76.96.59,2.36-.37,3.11l-31.03,24.38c-.4.32-.89.47-1.37.47Z"/>
      <ellipse class="cls-1" cx="100" cy="188.09" rx="97.17" ry="10.29"/>
    </g>
  </g>
</svg>