<?xml version="1.0" encoding="UTF-8"?>
<svg id="Layer_1" data-name="Layer 1" xmlns="http://www.w3.org/2000/svg" viewBox="0 0 200 200">
  <defs>
    <style>
      .cls-1 {
        fill: #fff;
      }

      .cls-2 {
        fill: #143745;
      }

      .cls-3 {
        fill: #b7cc34;
      }
    </style>
  </defs>
  <g>
    <g>
      <path class="cls-2" d="M89.39,91.58c-1.2,0-2.19-1-2.19-2.19v-10.12c0-1.2,1-2.19,2.19-2.19s2.19,1,2.19,2.19v10.12c0,1.25-1,2.19-2.19,2.19Z"/>
      <path class="cls-2" d="M104.09,91.63c-1.2,0-2.19-1-2.19-2.19v-10.12c0-1.2,1-2.19,2.19-2.19s2.19,1,2.19,2.19v10.12c0,1.2-1,2.19-2.19,2.19Z"/>
      <path class="cls-2" d="M96.72,83.1c-10.52,0-19.2-8.23-19.69-18.8l-.7-14.16c-.05-.85.45-1.65,1.2-2.04,8.63-4.39,15.21-2.34,20.99-.55,5.19,1.6,9.67,2.99,15.56.45.7-.3,1.5-.2,2.09.2.6.45,1,1.15.95,1.89l-.7,14.16c-.5,10.62-9.12,18.85-19.69,18.85ZM80.76,51.44l.6,12.66c.4,8.18,7.13,14.61,15.36,14.61s14.96-6.43,15.36-14.61l.55-10.92c-5.88,1.55-10.72.05-15.41-1.4-5.19-1.6-10.07-3.14-16.45-.35Z"/>
      <path class="cls-2" d="M96.72,98.91c-.55,0-1.1-.2-1.55-.65l-12.02-11.97-13.81,6.38c-.8.35-1.5.8-2.19,1.3-1,.7-2.34.5-3.04-.45-.7-1-.5-2.34.45-3.04s1.94-1.25,2.94-1.75l15.16-7.03c.85-.4,1.79-.2,2.44.45l11.57,11.52,5.83-5.78s.05-.05.1-.05l5.68-5.63c.65-.65,1.65-.8,2.44-.45l15.16,7.03c.6.3,1.15.6,1.7.9,1.05.65,1.35,1.99.75,2.99-.65,1.05-1.99,1.35-2.99.75-.4-.25-.8-.45-1.25-.7l-1.3-.6-12.52-5.78-4.69,4.64s-.05.05-.1.05l-7.28,7.23c-.35.45-.95.65-1.5.65Z"/>
      <path class="cls-2" d="M115.16,133.46h-55.5c-1.2,0-2.19-1-2.19-2.19v-26.73c0-.95.1-1.94.25-2.84.2-1.2,1.35-1.99,2.54-1.79s1.99,1.35,1.79,2.54c-.1.7-.2,1.4-.2,2.09v24.53h53.35c1.2,0,2.19,1,2.19,2.19s-1,2.19-2.24,2.19Z"/>
      <path class="cls-2" d="M72.98,133.46c-1.2,0-2.19-1-2.19-2.19v-20.24c0-1.2,1-2.19,2.19-2.19s2.19,1,2.19,2.19v20.24c0,1.2-1,2.19-2.19,2.19Z"/>
    </g>
    <path class="cls-2" d="M114.96,52.29c-1.2,0-2.19-1-2.19-2.19,0-7.18-5.83-13.01-13.01-13.01h-6.03c-7.18,0-13.01,5.83-13.01,13.01,0,1.2-1,2.19-2.19,2.19s-2.19-1-2.19-2.19c0-9.57,7.83-17.4,17.4-17.4h6.03c9.57,0,17.4,7.83,17.4,17.4,0,1.2-1,2.19-2.19,2.19Z"/>
  </g>
  <g>
    <path class="cls-2" d="M56.43,58.32c-1.2,0-2.19-1-2.19-2.19h0c0-1.2,1-2.19,2.19-2.19s2.19,1,2.19,2.19-1,2.19-2.19,2.19Z"/>
    <path class="cls-2" d="M42.92,71.93c-4.04,0-7.88-1.55-10.82-4.34-2.94-2.79-4.64-6.53-4.84-10.57v-.05l-.15-5.38c-.1-4.29,1.45-8.38,4.49-11.47,2.99-3.09,7.03-4.79,11.32-4.79,3.74,0,7.33,1.3,10.17,3.74.95.8,1.05,2.14.25,3.09-.8.95-2.14,1.05-3.09.25-2.04-1.75-4.69-2.69-7.38-2.69-3.09,0-6.03,1.25-8.18,3.44-2.19,2.24-3.34,5.19-3.24,8.28l.15,5.38c.15,2.89,1.4,5.58,3.49,7.63,2.09,1.99,4.89,3.14,7.78,3.14.8,0,1.6-.1,2.39-.25,1.2-.25,2.34.5,2.59,1.7s-.5,2.34-1.7,2.59c-1,.15-2.09.3-3.24.3Z"/>
    <path class="cls-2" d="M59.67,113.42H14.45c-1.2,0-2.19-1-2.19-2.19v-19.15c0-5.38,3.14-10.32,8.03-12.56l11.67-5.43c.85-.4,1.79-.2,2.44.45l8.53,8.48,3.69-3.69c.85-.85,2.24-.85,3.09,0s.85,2.24,0,3.09l-.8.8-4.44,4.39c-.85.85-2.24.85-3.09,0l-8.97-8.93-10.27,4.79c-3.34,1.55-5.48,4.94-5.48,8.63v16.95h43.03c1.2,0,2.19,1,2.19,2.19s-1,2.19-2.19,2.19Z"/>
    <path class="cls-2" d="M24.67,113.42c-1.2,0-2.19-1-2.19-2.19v-16.85c0-1.2,1-2.19,2.19-2.19s2.19,1,2.19,2.19v16.85c0,1.25-.95,2.19-2.19,2.19Z"/>
  </g>
  <g>
    <path class="cls-2" d="M153.81,71.93c-2.49,0-4.84-.55-7.03-1.65-1.1-.55-1.5-1.84-1-2.94.55-1.1,1.84-1.5,2.94-1,1.6.8,3.29,1.2,5.09,1.2,2.89,0,5.68-1.1,7.78-3.14,2.09-1.99,3.34-4.69,3.49-7.63l.15-5.38c.1-3.09-1.05-6.03-3.24-8.28-2.19-2.24-5.09-3.44-8.18-3.44-3.64,0-6.98,1.65-9.17,4.59-.75.95-2.09,1.15-3.04.45-.95-.75-1.15-2.09-.45-3.04,3.04-4.04,7.63-6.33,12.66-6.33,4.29,0,8.33,1.7,11.32,4.79,2.99,3.09,4.59,7.18,4.49,11.47l-.15,5.38v.05c-.2,4.04-1.89,7.78-4.84,10.57s-6.78,4.34-10.82,4.34Z"/>
    <path class="cls-2" d="M182.28,113.42h-52.5c-1.2,0-2.19-1-2.19-2.19s1-2.19,2.19-2.19h50.31v-16.95c0-3.69-2.14-7.08-5.48-8.63l-10.27-4.79-8.97,8.93c-.85.85-2.24.85-3.09,0l-5.63-5.63-.05-.05-2.04-2.04c-.85-.85-.85-2.24,0-3.09s2.24-.85,3.09,0l2.09,2.09.05.05,4.04,4.04,8.53-8.48c.65-.65,1.65-.8,2.44-.45l11.67,5.43c4.89,2.24,8.03,7.18,8.03,12.56v19.15c0,1.3-.95,2.24-2.19,2.24Z"/>
    <path class="cls-2" d="M172.06,113.42c-1.2,0-2.19-1-2.19-2.19v-16.85c0-1.2,1-2.19,2.19-2.19s2.19,1,2.19,2.19v16.85c0,1.25-1,2.19-2.19,2.19Z"/>
  </g>
  <path class="cls-3" d="M96.82,118.2c-19.35,0-38.04-10.57-47.52-28.97-13.41-26.13-3.09-58.34,23.09-71.75,26.18-13.41,58.34-3.09,71.75,23.09,13.41,26.13,3.09,58.34-23.09,71.75-7.73,3.99-16.06,5.88-24.23,5.88ZM96.67,15.99c-7.53,0-15.11,1.75-22.29,5.38-23.98,12.32-33.51,41.88-21.19,65.87,8.68,16.85,25.83,26.58,43.58,26.58,7.53,0,15.11-1.75,22.29-5.38,23.98-12.32,33.51-41.88,21.19-65.87-8.68-16.9-25.83-26.58-43.58-26.58Z"/>
  <path class="cls-2" d="M96.82,108.33c-15.76,0-31.01-8.63-38.69-23.58h0c-5.29-10.32-6.28-22.09-2.69-33.11,3.54-11.02,11.17-20.04,21.49-25.33,21.29-10.92,47.52-2.49,58.49,18.8,10.92,21.29,2.49,47.52-18.8,58.49-6.38,3.19-13.16,4.74-19.79,4.74ZM61.96,82.7c9.82,19.15,33.41,26.73,52.6,16.9,19.15-9.82,26.73-33.41,16.9-52.6-9.82-19.15-33.41-26.73-52.6-16.9-9.27,4.79-16.15,12.86-19.35,22.79-3.14,9.97-2.29,20.54,2.44,29.82h0Z"/>
  <path class="cls-2" d="M120.55,131.57c-.25,0-.45-.05-.65-.1-.55-.2-1-.55-1.3-1.1l-8.13-15.86c-.55-1.1-.15-2.39.95-2.94s2.39-.15,2.94.95l7.13,13.91,10.77-5.53-7.13-13.91c-.55-1.1-.15-2.39.95-2.94s2.39-.15,2.94.95l8.13,15.86c.55,1.1.15,2.39-.95,2.94l-14.66,7.53c-.3.15-.65.25-1,.25Z"/>
  <path class="cls-3" d="M158.04,202.67c-1.25,0-2.44-.2-3.64-.6-3.04-1-5.48-3.09-6.93-5.88l-32.76-63.82c-.25-.5-.3-1.1-.15-1.65.2-.55.55-1,1.1-1.3l22.59-11.62c1.1-.55,2.39-.15,2.94.95l32.76,63.82c2.99,5.83.7,13.06-5.14,16.06l-5.29,2.69c-1.79.95-3.64,1.35-5.48,1.35ZM119.55,132.37l31.76,61.88c1.89,3.69,6.43,5.19,10.17,3.24l5.29-2.69h0c3.69-1.89,5.19-6.43,3.24-10.17l-31.76-61.88-18.7,9.62Z"/>
  <path class="cls-1" d="M96.72,30.45c-1.2,0-2.19-1-2.19-2.19v-4.64c0-1.2,1-2.19,2.19-2.19s2.19,1,2.19,2.19v4.64c0,1.2-1,2.19-2.19,2.19Z"/>
  <path class="cls-1" d="M60.12,67.1h-4.64c-1.2,0-2.19-1-2.19-2.19s1-2.19,2.19-2.19h4.64c1.2,0,2.19,1,2.19,2.19s-1,2.19-2.19,2.19Z"/>
  <path class="cls-1" d="M96.72,108.33c-1.2,0-2.19-1-2.19-2.19v-4.64c0-1.2,1-2.19,2.19-2.19s2.19,1,2.19,2.19v4.64c0,1.2-1,2.19-2.19,2.19Z"/>
  <path class="cls-1" d="M138,67.1h-4.64c-1.2,0-2.19-1-2.19-2.19s1-2.19,2.19-2.19h4.64c1.2,0,2.19,1,2.19,2.19-.05,1.2-1,2.19-2.19,2.19Z"/>
</svg>